<?xml version="1.0" encoding="UTF-8" standalone="no"?>
<svg
   xmlns:dc="http://purl.org/dc/elements/1.1/"
   xmlns:cc="http://creativecommons.org/ns#"
   xmlns:rdf="http://www.w3.org/1999/02/22-rdf-syntax-ns#"
   xmlns:svg="http://www.w3.org/2000/svg"
   xmlns="http://www.w3.org/2000/svg"
   xmlns:sodipodi="http://sodipodi.sourceforge.net/DTD/sodipodi-0.dtd"
   xmlns:inkscape="http://www.inkscape.org/namespaces/inkscape"
   width="1208.6483"
   height="645.67743"
   version="1.1"
   id="svg94"
   sodipodi:docname="ccteam6.svg"
   inkscape:version="0.92.2 (5c3e80d, 2017-08-06)"
   inkscape:export-filename="E:\Yann\Applications\Chachatte Team app\logos\ccteam4.png"
   inkscape:export-xdpi="83"
   inkscape:export-ydpi="83">
  <metadata
     id="metadata100">
    <rdf:RDF>
      <cc:Work
         rdf:about="">
        <dc:format>image/svg+xml</dc:format>
        <dc:type
           rdf:resource="http://purl.org/dc/dcmitype/StillImage" />
        <dc:title></dc:title>
      </cc:Work>
    </rdf:RDF>
  </metadata>
  <defs
     id="defs98" />
  <sodipodi:namedview
     pagecolor="#ffffff"
     bordercolor="#666666"
     borderopacity="1"
     objecttolerance="10"
     gridtolerance="10"
     guidetolerance="10"
     inkscape:pageopacity="0"
     inkscape:pageshadow="2"
     inkscape:window-width="1537"
     inkscape:window-height="774"
     id="namedview96"
     showgrid="false"
     inkscape:zoom="0.35355339"
     inkscape:cx="63.239899"
     inkscape:cy="168.00179"
     inkscape:window-x="1999"
     inkscape:window-y="59"
     inkscape:window-maximized="0"
     inkscape:current-layer="svg94"
     fit-margin-top="0"
     fit-margin-left="0"
     fit-margin-right="0"
     fit-margin-bottom="0" />
  <path
     d="m 872.41262,28.91884 c 10.372,-4.331 21.033,-7.891 31.633,-11.617 9.41,-3.308 18.831,-6.908 28.539,-9.2470001 l -33.694,16.9840001 c -6.754,3.33 -15.011,6.34 -21,10.79 -2.002,-2.011 -4.05,-4.463 -5.478,-6.91 z"
     id="path6-9"
     inkscape:connector-curvature="0"
     style="fill:#ed3b18" />
  <path
     d="M 691.28974,192.66847 180.72633,380.82688 468.98561,209.5107 Z"
     id="path78-2"
     inkscape:connector-curvature="0"
     style="fill:#ed3b18"
     sodipodi:nodetypes="cccc" />
  <path
     inkscape:connector-curvature="0"
     style="fill:#ed3b18;stroke-width:1.33103728"
     d="m 130.67841,245.68336 c -5.1856,3.50019 -10.18029,6.80067 -11.18903,7.07894 -5.74076,4.45764 -12.80467,7.94749 -19.07386,11.65176 -13.020204,7.69207 -26.15644,15.24984 -39.034225,23.17617 10.903857,-3.00016 21.641959,-7.68312 32.251656,-11.63098 9.703259,-3.61243 19.929269,-6.75299 29.353009,-11.00965 14.45575,-5.8188 28.7402,-11.98806 42.93635,-18.34595 h -11.07985 c -7.80107,-0.44098 -15.9423,-0.67648 -24.16405,-0.92029 z"
     id="path78-3" />
  <path
     style="fill:#ed3b18"
     d="m 513.51763,15.140401 c -5.774,1.902 -11.55605,5.125859 -17.12305,7.630859 L 457.14849,40.564229 403.2481,64.83376 c -2.42492,1.06477 -4.84632,2.128298 -7.27539,3.179688 h 36.79296 c 26.88655,-17.665163 53.67658,-35.478824 80.75196,-52.873047 z"
     id="path8-2"
     inkscape:connector-curvature="0" />
  <path
     d="m 786.98561,63.5107 -60,190 H 113.9856 C 80.915207,251.6413 40.704947,254.885 17.150587,232.1527 -2.7188232,207.4952 -2.6819432,185.3226 4.0645868,158.4877 10.538587,132.8617 27.591637,104.7609 38.419587,94.6217 64.781617,64.2377 111.41348,63.5107 180.9856,63.5107 Z"
     id="path12-2"
     inkscape:connector-curvature="0"
     sodipodi:nodetypes="cccccccc" />
  <path
     d="m 969.04136,37.601562 c -0.69761,0.0049 -1.3949,0.0181 -2.09375,0.04102 -17.883,0.598 -36.35882,8.120281 -48.63282,21.363281 -13.767,14.854 -19.66445,36.79245 -22.31445,56.439447 -0.823,-1.929 -1.34551,-4.09265 -1.97851,-6.09765 -0.815,-2.033 -1.51516,-3.99991 -2.03516,-6.12891 -11.231,1.017 -22.51006,1.88998 -33.66406,3.58398 -5.779,0.879 -11.5578,2.89569 -17.3418,3.42969 -9.45,0.871 -15.71125,-2.75623 -26.53125,0.13477 -9.879,2.638 -18.76755,9.59562 -26.93555,15.51562 -27.264,19.763 -51.29515,42.46902 -75.28515,66.04102 -13.2,6.257 -122.89886,60.97151 -126.75586,59.97851 -4.68,17.295 -4.9,39.83458 -4.75,57.76758 -28.099,16.139 -55.60185,33.08021 -83.21485,50.0332 -2.739,1.68201 -16.11505,11.09182 -17.62305,11.50782 -4.313,3.349 -9.62007,5.9709 -14.33007,8.7539 -9.782,5.779 -19.65118,11.45711 -29.32618,17.41211 8.192,-2.254 16.25752,-5.77423 24.22852,-8.74023 7.29,-2.714 14.97469,-5.07153 22.05469,-8.26953 5.735,18.37 13.44542,37.15236 23.10742,53.81836 3.598,6.206 8.062,11.88336 11.625,18.06836 -10.399,7.463 -21.58026,14.10512 -32.32227,21.07812 l -66.73047,44.00586 c -8.152,5.473 -16.68643,10.65814 -24.64843,16.36914 35.346,-12.466 70.37304,-26.32797 105.24805,-40.04297 13.281,-5.223 26.835,-9.82003 40,-15.33203 6.141,7.156 12.82278,14.12241 20.05078,20.19141 1.76,0.396 2.91269,0.98031 4.42969,1.94531 l -1.60743,3.24414 c -51.94924,170.85224 157.24327,180.10204 207.24805,67.27344 17.261,-1.343 34.57283,-2.43383 51.79883,-4.17383 27.572,-2.784 69.43997,-38.04419 69.43997,-38.04419 17.33718,42.7032 43.39736,51.03468 56.38004,57.35382 41.58024,18.66921 83.70041,9.57624 123.75811,-10.55768 9.435,-5.381 18.967,-12.89965 26.998,-20.22265 44.192,-40.3 72.3578,-101.66882 50.9258,-161.00782 -1.4506,-4.07733 -3.1746,-8.035 -5.1699,-11.875 -2.674,-5.064 -10.0172,-14.13418 -9.7832,-19.61718 l 0.4961,-0.24024 c 3.871,3.14 7.1977,7.14221 10.5977,10.78321 5.649,-10.212 8.9996,-22.3121 10.2656,-33.8711 3.523,-32.155 -7.5858,-78.55345 -27.8828,-103.68945 -2.002,-2.011 -4.0486,-4.46316 -5.4766,-6.91016 -16.512,-18.67 -35.0889,-31.16644 -58.2539,-40.14844 -9,-2.06799 -18.0201,-3.02415 -27.1641,-4.16015 13.766,9.13 23.6223,20.35809 31.5293,34.87109 2.413,4.429 3.0734,8.88456 1.4844,13.72656 -4.505,13.728 -19.7802,21.85536 -31.8242,27.81836 -7.461,-6.555 -15.2134,-13.79128 -24.4414,-17.73828 -9.792,-4.188 -18.56069,-2.59522 -28.13869,1.17578 -3.76,-8.73 -5.76742,-18.72306 -8.23242,-27.91406 4.352,1.756 8.67081,3.37197 13.38281,3.79297 7.123,0.636 13.4223,-2.14484 18.7383,-6.71484 10.477,-9.005 11.864,-20.72927 17.332,-32.57227 2.838,-6.148 6.9128,-11.89553 10.2988,-17.76953 6.185,-10.73 11.8221,-23.7972 13.7071,-36.1582 0.6,-3.933 0.5925,-7.98317 0.8925,-11.95117 -0.593,-20.924009 -7.5867,-40.078646 -23.1367,-54.681646 C 1011.623,45.919992 990.66721,37.449933 969.04136,37.601562 Z"
     id="path12"
     inkscape:connector-curvature="0"
     sodipodi:nodetypes="ccccccccccccccccccccccccccccccccccccccccccccccccccccccccccc" />
  <path
     d="m 1121.2593,228.91438 c 10.372,-4.331 21.033,-7.891 31.633,-11.617 9.41,-3.308 18.831,-6.908 28.539,-9.247 l -33.694,16.984 c -6.754,3.33 -15.011,6.34 -21,10.79 -2.002,-2.011 -4.05,-4.463 -5.478,-6.91 z"
     id="path6"
     inkscape:connector-curvature="0"
     style="fill:#ed3b18" />
  <path
     d="m 1050.5703,115.17238 c 15.824,-7.267 31.875,-13.899 47.81,-20.896004 l 53.899,-24.27 39.246,-17.794 c 5.567,-2.505 11.349,-5.729 17.123,-7.631 -40.281,25.878 -79.741,52.972 -120.201,78.556004 -14.104,8.919 -28.265,18.553 -42.854,26.626 6.802,11.898 14.68,25.44 17.412,39.002 -9,-2.068 -18.019,-3.024 -27.163,-4.16 13.766,9.13 23.622,20.358 31.529,34.871 2.413,4.429 3.073,8.885 1.484,13.727 -4.505,13.728 -19.78,21.856 -31.824,27.819 -7.461,-6.555 -15.213,-13.793 -24.441,-17.74 -9.792,-4.188 -18.56099,-2.595 -28.13899,1.176 -3.76,-8.73 -5.767,-18.723 -8.232,-27.914 4.352,1.756 8.671,3.372 13.383,3.793 7.123,0.636 13.42199,-2.145 18.73799,-6.715 10.477,-9.005 11.864,-20.729 17.332,-32.572 2.838,-6.148 6.912,-11.896 10.298,-17.77 6.185,-10.73 11.822,-23.797 13.707,-36.158 0.6,-3.933 0.593,-7.982 0.893,-11.95 z"
     id="path8"
     inkscape:connector-curvature="0"
     style="fill:#ed3b18" />
  <path
     d="m 479.88531,371.21138 c -3.44667,-12.90267 -6.092,-25.96733 -7.936,-39.194 -10.668,-78.995 9.122,-157.011 57.645,-220.422 45.32575,-59.190744 113.68873,-98.584705 187.08,-109.024005 69.456,-9.227 141.649,6.201 197.805,49.152001 -12.638,12.131 -18.646,26.846 -22.445,43.683 -16.406,1.396 -36.986,3.134 -52.601,7.825004 -1.639,-0.686 -3.42,-1.145 -5.165,-1.482 -20.833,-4.026004 -36.748,7.745 -53.039,18.581 -39.093,-5.721 -78.744,0.541 -113.08,20.554 -42.099,24.538 -70.222,64.334 -82.677,111.017 -4.68,17.295 -4.899,39.836 -4.749,57.769 -28.099,16.139 -55.603,33.08 -83.216,50.033 -2.739,1.682 -16.114,11.092 -17.622,11.508 z"
     id="path10"
     inkscape:connector-curvature="0"
     sodipodi:nodetypes="cccccccccccccc" />
  <path
     d="m 996.31531,265.39938 c 5.82499,-0.533 11.46999,1.62 16.88199,3.459 q -11.039,1.51 -22.01999,3.391 c -5.548,0.947 -11.071,1.955 -16.684,2.427 6.234,-4.446 14.271,-7.971 21.822,-9.277 z"
     id="path14"
     inkscape:connector-curvature="0"
     style="fill:#ed3b18" />
  <path
     d="m 861.58631,218.15738 c 0.606,0.724 0.497,0.474 0.816,1.237 2.547,6.093 11.706,30.862 9.789,35.971 l -1.379,0.493 c -0.926,-0.587 -1.737,-1.205 -2.269,-2.184 -2.34,-4.312 -3.428,-10.208 -4.932,-14.901 -1.774,-5.532 -3.852,-10.96 -5.635,-16.492 1.249,-1.33 2.417,-2.743 3.61,-4.124 z"
     id="path16"
     inkscape:connector-curvature="0"
     style="fill:#fefefe" />
  <path
     d="m 783.41931,289.99238 c 2.26,-2.362 4.457,-4.576 7.066,-6.555 2.124,10.152 3.914,18.624 10.748,26.782 7.498,8.334 15.585,15.48 25.701,20.451 q -1.613,6.608 -2.92,13.284 c -6.445,-13.768 -12.212,-22.323 -23.011,-32.974 -6.184,-6.713 -11.919,-13.838 -17.584,-20.988 z"
     id="path18"
     inkscape:connector-curvature="0"
     style="fill:#ed3b18" />
  <path
     d="m 912.62531,290.95038 6.9,2.652 c -4.008,9.783 -8.095,19.55 -13.207,28.813 -2.524,-0.656 -5.025,-1.414 -7.531,-2.136 4.429,-9.847 8.815,-19.767 13.838,-29.329 z"
     id="path20"
     inkscape:connector-curvature="0"
     style="fill:#fefefe" />
  <path
     d="m 920.12831,209.15938 c 0.012,0.979 -0.149,1.944 -0.404,2.885 -5.146,19.005 -17.003,36.987 -34.19,47 -2.008,-0.723 -4.088,-1.309 -6.123,-1.956 -1.132,-0.38 -0.634,-0.113 -1.515,-0.756 2.992,-2.292 6.503,-3.851 9.54,-6.27 13.364,-10.644 25.061,-25.748 32.692,-40.903 z"
     id="path22"
     inkscape:connector-curvature="0"
     style="fill:#fefefe" />
  <path
     d="m 948.55631,232.82338 c 4.687,4.821 16.21,25.202 19.911,32.046 l -6.98,3.538 c -1.007,0.335 -0.463,0.289 -1.639,0.019 -4.368,-5.441 -14.551,-23.598 -17.629,-30.354 2.022,-1.872 4.169,-3.551 6.337,-5.249 z"
     id="path24"
     inkscape:connector-curvature="0"
     style="fill:#fefefe" />
  <path
     d="m 894.02231,109.34838 c 0.633,2.005 1.156,4.168 1.979,6.097 -3.324,2.933 -5.236,6.599 -9.81,7.78 -3.494,0.902 -7.189,1.281 -10.775,1.599 -11.388,1.013 -12.807,-2.827 -21.918,-8.203 13.331,-1.272 27.666,-3.532 40.524,-7.273 z"
     id="path26"
     inkscape:connector-curvature="0"
     style="fill:#ed3b18" />
  <path
     d="m 725.12831,380.62438 c 1.313,1.356 1.283,5.395 1.575,7.408 2.192,15.108 9.069,27.636 21.363,36.832 -2.703,-0.99 -5.386,-2.045 -8.076,-3.071 -4.472,-1.7 -9.069,-4.196 -12.691,-7.354 -7.211,-6.287 -9.638,-14.683 -10.215,-23.891 2.177,-3.852 4.917,-6.837 8.044,-9.924 z"
     id="path28"
     inkscape:connector-curvature="0"
     style="fill:#fefefe" />
  <path
     d="m 998.62231,372.14438 c 2.63099,2.949 18.49399,61.063 20.90699,70.141 -0.998,0.962 -2.494,1.008 -3.835,1.313 -1.625,-1.356 -19.52799,-60.422 -21.27599,-67.399 1.358,-1.389 2.804,-2.708 4.204,-4.055 z"
     id="path30"
     inkscape:connector-curvature="0"
     style="fill:#fefefe" />
  <path
     d="m 645.25931,494.09938 0.569,0.117 0.347,0.67 c -1.624,3.874 -6.297,8.114 -8.942,11.484 -7.707,9.82 -11.728,21.587 -10.112,34.146 0.916,7.117 3.998,13.981 9.885,18.351 5.784,4.292 13.124,5.618 20.15,4.544 9.882,-1.51 18.271,-7.23 24.082,-15.212 1.205,0.384 2.358,0.8 3.529,1.28 l 0.39,0.95 -0.867,1.43 c -2.516,2.518 -5.094,4.969 -7.95,7.101 -8.509,6.352 -19.24,9.928 -29.892,8.185 -7.12019,-1.06622 -13.46614,-5.26894 -17.696,-10.872 -5.813,-7.938 -6.526,-18.051 -5.081,-27.498 2.151,-14.057 10.217,-26.305 21.588,-34.676 z"
     id="path32"
     inkscape:connector-curvature="0"
     style="fill:#fefefe"
     sodipodi:nodetypes="cccccccccccccccc" />
  <path
     d="m 687.66431,283.17638 c 5.38,1.077 11.212,4.135 16.217,6.422 24.308,11.108 50.541,25.015 71.649,41.451 2.786,2.169 5.841,4.245 8.332,6.75 l -0.043,0.691 -1.645,0.26 c -3.445,0.78 -6.725,1.664 -9.971,3.07 -9.626,-9.304 -23.093,-17.509 -34.212,-25.078 -16.699,-11.368 -33.276,-22.715 -50.327,-33.566 z"
     id="path34"
     inkscape:connector-curvature="0"
     style="fill:#fefefe" />
  <path
     d="m 766.57131,437.80738 c -0.084,2.568 -3.773,7.012 -5.019,9.396 -13.855,26.525 -26.278,48.255 -22.717,79.327 -3.131,-4.572 -6.67,-8.817 -10.346,-12.955 -4.006,-4.564 -8.287,-8.291 -13.114,-11.973 8.442,-11.198 17.72,-21.811 26.275,-32.935 6.434,-8.365 12.109,-17.497 18.977,-25.498 1.807,-2.106 3.593,-3.844 5.944,-5.362 z"
     id="path36"
     inkscape:connector-curvature="0"
     style="fill:#ed3b18" />
  <path
     d="m 710.57031,397.16638 c 0.554,0.675 0.413,0.35 0.61,1.212 1.306,5.718 3.149,11.012 5.563,16.36 -8.159,10.075 -15.923,20.503 -23.951,30.688 -13.802,17.509 -27.678,34.564 -38.598,54.086 l -3.454,5.975 c 8.114,-28.026 26.244,-53.422 41.128,-78.215 5.92,-9.862 11.424,-21.221 18.702,-30.106 z"
     id="path38"
     inkscape:connector-curvature="0"
     style="fill:#fefefe" />
  <path
     style="fill:#fefefe"
     d="m 642.43131,507.61638 c 2.26457,4.46363 2.68526,9.65893 5.02565,14.10902 2.90976,6.349 7.97626,11.46361 13.861,15.12294 4.55129,3.12398 9.66019,5.40565 13.97535,8.87204 -0.66708,2.89821 -3.44103,4.63357 -5.74301,6.23422 -3.59511,2.25644 -7.37001,4.41203 -11.61742,5.10451 -5.85789,1.30774 -12.5168,0.63308 -17.22195,-3.38333 -6.1653,-5.15448 -8.40278,-13.69585 -7.77223,-21.46634 0.72224,-8.89718 4.70068,-17.20003 9.49261,-24.59306 z"
     id="path40"
     inkscape:connector-curvature="0" />
  <path
     d="m 932.66331,243.25038 c 2.754,3.44 4.858,7.809 7.117,11.599 4.13,6.931 8.417,13.8 12.221,20.916 -5.26,1.977 -10.435,4.39 -15.606,6.598 -5.227,-1.095 -10.202,-2.729 -15.222,-4.517 -8.251,-3.19 -17.439,-6.567 -25.06,-11.031 11.764,-8.428 24.228,-15.982 36.55,-23.565 z"
     id="path42"
     inkscape:connector-curvature="0"
     style="fill:#ed3b18" />
  <path
     style="fill:#ed3b18"
     d="m 783.67231,345.36238 c 5.36512,-0.55897 11.04903,0.85118 15.09525,4.5265 6.48376,5.61462 8.17038,15.76596 4.15475,23.2885 -2.67337,5.24669 -7.92989,9.0272 -13.67141,10.14239 -4.77494,0.41453 -9.8696,-0.23017 -13.82715,-3.1318 -5.7744,-3.98299 -8.96101,-11.29395 -7.97581,-18.23659 0.66572,-6.04744 4.63336,-11.45609 9.9951,-14.2386 1.95807,-1.05998 4.06616,-1.83083 6.22927,-2.3504 z"
     id="path44"
     inkscape:connector-curvature="0" />
  <path
     d="m 1027.0553,409.45638 c 11.526,-1.047 21.762,0.848 30.829,8.424 8.271,6.911 12.754,16.412 13.676,27.106 1.444,16.752 -6.028,33.09 -16.688,45.625 -11.344,13.339 -27.622,22.692 -45.241,23.933 -10.53399,0.742 -21.51599,-2.029 -29.57899,-9.079 -7.272,-6.358 -10.581,-15.231 -11.157,-24.716 -0.984,-16.21 6.066,-30.233 16.51,-42.117 0.57,-0.578 1.242,-1.025 1.891,-1.51 l 0.736,0.306 c 0.612,1.135 1.087,1.407 0.525,2.669 -1.419,3.183 -4.915,6.387 -7.038,9.187 -6.068,8.006 -8.924,20.183 -8.312,30.087 0.552,8.953 3.935,17.553 10.908,23.427 7.701,6.487 17.35399,8.187 27.14699,7.29 16.578,-1.519 31.263,-10.729 41.664,-23.475 9.433,-11.56 16.023,-26.388 14.4,-41.583 -0.999,-9.355 -5.188,-17.938 -12.607,-23.844 -10.051,-8.001 -21.139,-8.437 -33.407,-7.003 -0.955,-0.913 -1.105,-1.134 -1.503,-2.391 l 0.703,-1.028 c 2.103,-1.067 4.236,-1.11 6.543,-1.308 z"
     id="path46"
     inkscape:connector-curvature="0"
     style="fill:#fefefe" />
  <path
     d="m 788.74231,200.13338 c 1.893,2.013 9.696,12.885 10.641,15.22 1.931,4.769 2.047,11.166 2.677,16.247 1.854,14.947 4.069,43.657 10.74,56.344 1.502,2.858 3.533,5.557 6.317,7.274 5.429,3.349 13.253,4.484 19.409,5.915 q 13.312,3.162 26.697,5.997 c 7.819,1.582 15.8,2.77 23.428,5.141 l -2.887,5.143 c -0.718,1.119 -0.808,1.609 -2.228,1.814 -4.463,0.643 -10.72,-0.858 -15.235,-1.335 -8.879,-0.937 -18.35,-0.847 -27.044,-2.754 -4.433,-0.973 -8.864,-2.72 -13.155,-4.195 -5.249,-1.805 -10.303,-3.723 -14.842,-6.997 -3.448,-2.487 -6.36,-5.559 -8.299,-9.375 -4.643,-9.134 -5.995,-19.898 -7.662,-29.888 q -2.955,-17.528 -5.073,-35.177 c -1.143,-9.787 -1.93,-19.642 -3.484,-29.374 z"
     id="path50"
     inkscape:connector-curvature="0"
     style="fill:#fefefe" />
  <path
     d="m 1070.6353,203.12738 c 9.353,0.349 34.473,22.586 41.483,30.106 19.533,20.956 33.765,56.994 32.79,85.731 -2.59,-2.959 -4.351,-6.584 -6.858,-9.634 -7.036,-8.558 -15.32,-15.681 -24.128,-22.331 -0.435,-4.705 -0.969,-9.455 -1.636,-14.133 -3.843,-26.939 -20.032,-53.418 -41.651,-69.739 z"
     id="path52"
     inkscape:connector-curvature="0"
     style="fill:#ed3b18" />
  <path
     d="m 1079.1813,280.61438 c 0.271,0.054 0.544,0.103 0.815,0.163 6.583,1.448 13.162,4.138 19.273,6.936 19.914,9.119 34.153,21.734 45.65,40.463 -0.074,7.098 -0.955,14.139 -2.922,20.96 l -0.451,0.838 c -2.04,0.085 -11.585,-6.671 -14.47,-8.224 -9.981,-5.371 -20.052,-9.87 -30.695,-13.756 0.417,-2.215 0.679,-4.51 0.84,-6.757 1.258,-17.574 -7.066,-28.092 -18.04,-40.623 z"
     id="path54"
     inkscape:connector-curvature="0"
     style="fill:#fefefe" />
  <path
     d="m 671.35031,435.31338 0.525,0.127 c -0.297,3.093 -7.264,13.621 -9.155,16.915 -0.406,0.112 -0.814,0.217 -1.215,0.347 -23.953,7.739 -44.545,30.314 -55.821,52.106 -8.183,15.813 -10.79023,31.06636 -9.744,53.045 9.9843,66.88202 88.46846,41.58988 111.88862,22.30359 l 15.71527,5.36001 c -82.59589,58.73808 -129.21895,21.87188 -139.07389,-14.1516 -6.16,-25.127 -0.265,-53.326 12.175,-75.618 15.576,-27.911 43.787,-51.555 74.705,-60.434 z"
     id="path56"
     inkscape:connector-curvature="0"
     style="fill:#fefefe"
     sodipodi:nodetypes="ccccccccccc" />
  <path
     d="m 977.97031,288.40238 c 3.924,-0.597 10.203,2.956 13.607,4.823 9.93099,5.446 22.49299,14.607 27.77399,24.92 1.068,2.086 1.674,4.451 2.327,6.695 -3.929,-2.316 -7.426,-5.857 -10.943,-8.767 -10.198,-8.435 -20.82299,-17.226 -33.10099,-22.393 11.783,10.056 26.55099,25.26 29.98599,40.69 -12.72999,-11.562 -22.08499,-24.673 -38.26699,-31.983 5.022,8.299 11.541,15.48 16.968,23.494 2.232,3.824 3.394,7.875 4.541,12.119 -5.382,-3.402 -9.457,-8.953 -13.84,-13.516 -5.332,-5.551 -11.817,-11.467 -18.196,-15.799 3.838,8.848 9.866,15.945 15.101,23.942 3.471,5.302 6.092,10.94 8.397,16.828 -7.728,-4.429 -24.534,-22.935 -30.438,-30.108 0.7,4.012 1.424,7.916 2.627,11.811 q -12.606,-1.35 -24.977,-4.122 c -1.977,-5.57 -3.229,-10.915 -3.459,-16.822 10.624,-12.414 36.056,-19.041 51.893,-21.812 z"
     id="path58"
     inkscape:connector-curvature="0"
     style="fill:#ed3b18" />
  <path
     d="m 956.33131,49.690376 c 21.32,-2.861 41.814,0.821 59.18699,14.148 13.516,10.368 22.716,25.266 24.952,42.266004 0.833,6.331 0.707,12.727 0.238,19.081 -11.763,1.383 -23.118,0.744 -34.866,-0.216 -0.1694,-9.80684 -1.922,-19.40562 -5.021,-28.353004 -5.33199,-15.446 -15.75599,-30.155 -29.55599,-39.142 -4.649,-3.028 -9.955,-5.342 -14.934,-7.784 z"
     id="path60"
     inkscape:connector-curvature="0"
     style="fill:#ed3b18"
     sodipodi:nodetypes="cccccccc" />
  <path
     d="m 1028.1673,420.45438 c 3.513,-0.641 7.738,-0.139 11.159,0.82 7.5935,2.11684 13.7784,7.30235 17.589,14.06 4.421,8.241 3.923,19.552 1.349,28.322 -4.095,13.954 -15.287,27.218 -28.038,34.088 -9.607,5.177 -21.513,8.106 -32.20299,4.737 -7.099,-2.237 -11.903,-6.743 -15.327,-13.211 -1.441,-3.833 -2.395,-7.467 -2.661,-11.573 -0.776,-11.937 4.134,-22.662 11.859,-31.491 3.705,8.218 5.243,21.475 12.15599,27.5 3.317,2.891 7.701,3.882 12.012,3.38 6.309,-0.734 11.976,-4.609 15.734,-9.618 3.082,-4.108 5.179,-9.567 4.189,-14.753 -0.921,-4.829 -3.597,-7.169 -7.502,-9.682 -2.443,-7.091 -4.43,-14.42 -6.394,-21.66 1.98,-0.473 4.061,-0.652 6.078,-0.919 z"
     id="path62"
     inkscape:connector-curvature="0"
     style="fill:#fefefe"
     sodipodi:nodetypes="cccccccccccccccc" />
  <path
     d="m 889.08831,334.40738 c 7.883,0.698 15.803,0.881 23.689,1.556 q 21.811,1.738 43.292,5.893 c -8.665,1.863 -17.386,2.598 -26.022,4.862 -25.451,6.672 -48.323,17.739 -70.781,31.274 -7.642,4.606 -15.41,9.253 -22.314,14.934 -12.743,10.484 -24.311,23.386 -35.208,35.738 -5.58,6.611 -11.626,12.84 -17.313,19.362 -5.142,5.895 -9.765,12.395 -15.545,17.687 8.093,-16.746 21.741,-35.324 32.07,-51.2 4.841,-7.44 9.85,-14.767 13.427,-22.928 3.354,-7.655 5.37,-15.616 6.559,-23.867 16.723,-12.295 32.82,-21.28 52.394,-28.381 5.114,-1.855 10.401,-3.905 15.752,-4.93 z"
     id="path64"
     inkscape:connector-curvature="0"
     style="fill:#ed3b18" />
  <path
     style="fill:#ed3b18"
     d="m 831.58631,132.95638 c 17.2455,-1.9109 35.04333,8.6321 41.41019,24.81756 7.52905,18.25092 0.43222,41.60595 -16.77131,51.70972 -7.36707,4.26612 -15.90669,6.88296 -24.45274,6.738 -16.23074,-0.70587 -31.48082,-11.66133 -37.10514,-26.94228 -7.47603,-18.45462 1.02535,-41.58306 18.48942,-51.02008 5.66849,-3.08313 12.04505,-4.64207 18.42958,-5.30292 z"
     id="path66"
     inkscape:connector-curvature="0" />
  <path
     d="m 833.76131,144.93138 c 10.20101,-0.6396 20.01689,5.38074 25.51538,13.7464 2.59712,4.07396 3.97063,8.79638 4.73662,13.5316 -6.11541,-0.59814 -12.26778,-0.36994 -18.399,-0.231 -1.89849,-3.69424 -5.00148,-7.65073 -9.55798,-7.64605 -5.61011,-0.10932 -11.05164,4.3316 -11.37402,10.07305 -0.78177,6.19493 4.34668,12.99424 10.89131,12.49228 3.47059,-0.21799 6.40758,-2.32473 9.08069,-4.35928 5.56434,0.65563 11.09107,1.68538 16.532,3.017 -3.03155,6.14435 -7.53063,11.81759 -13.78281,14.89494 -11.82842,5.96386 -27.86991,3.16857 -36.11041,-7.48952 -8.03351,-10.1619 -7.92401,-25.62387 -0.0895,-35.86892 5.26292,-7.19644 13.8601,-11.15242 22.55772,-12.1605 z"
     id="path68"
     inkscape:connector-curvature="0"
     sodipodi:nodetypes="cccccccccccccc" />
  <path
     d="m 1041.0833,365.46238 c 0.135,-0.021 0.269,-0.048 0.404,-0.062 18.212,-1.866 38.515,4.268 52.521,15.997 15.187,12.718 22.955,31.285 24.612,50.76 2.624,30.817 -10.291,60.943 -29.848,84.217 -21.392,25.457 -52.57,45.854 -86.399,48.579 -20.23199,1.63 -39.68799,-3.117 -55.30899,-16.417 -14.396,-12.258 -22.721,-29.941 -24.051,-48.721 -2.476,-34.944 13.545,-63.973 35.609,-89.567 2.962,-3.131 5.935,-6.15 9.161,-9.01 -1.615,16.515 -7.427,20.384 -15.652,33.848 -11.78477,19.82098 -18.25658,47.08237 -13.606,68.271 3.24949,14.61301 11.9641,27.58584 24.1,36.107 15.001,10.417 34.694,12.225 52.27199,8.966 28.797,-5.341 54.239,-24.801 70.49,-48.75 13.872,-20.442 21.722,-46.649 16.783,-71.315 -3.295,-16.453 -12.471,-31.803 -26.568,-41.155 -12.25,-8.126 -27.817,-11.627 -42.402,-10.219 -5.724,0.552 -11.435,1.944 -17.065,3.099 -0.626,-2.933 -1.388,-5.811 -2.178,-8.703 9.047,-2.943 17.63,-5.057 27.126,-5.925 z"
     id="path74"
     inkscape:connector-curvature="0"
     style="fill:#fefefe"
     sodipodi:nodetypes="ccscccccccccccccccccc" />
  <path
     d="m 585.47231,251.90138 c 3.857,0.993 113.557,-53.72 126.757,-59.977 -0.185,0.261 -0.368,0.524 -0.557,0.782 -2.188,2.981 -5.149,5.659 -7.681,8.371 -5.836,6.251 -11.825,12.38 -17.583,18.7 -16.186,17.767 -29.644,39.527 -36.604,62.59 -2.519,8.346 -3.939,16.907 -6.27,25.277 -24.25,10.832 -48.598,21.677 -72.663,32.912 -29.297,13.677 -58.346,27.729 -88.359,39.81 -7.08,3.198 -14.764,5.557 -22.054,8.271 -7.971,2.966 -16.037,6.485 -24.229,8.739 9.675,-5.955 19.543,-11.633 29.325,-17.412 4.71,-2.783 10.018,-5.404 14.331,-8.753 1.508,-0.416 14.883,-9.826 17.622,-11.508 27.613,-16.953 55.117,-33.894 83.216,-50.033 -0.15,-17.933 0.069,-40.474 4.749,-57.769 z"
     id="path78"
     inkscape:connector-curvature="0"
     style="fill:#ed3b18" />
  <path
     style="fill:#fefefe"
     d="m 1019.0003,173.74838 c -5.6803,11.15139 -7.0549,25.56477 -18.3364,32.94805 -8.53039,5.5823 -19.02344,1.00373 -27.25924,-2.84808 -21.67267,-11.40342 -41.85074,-27.14314 -55.04736,-48.04167 -13.27232,-20.90894 -11.44991,-48.04325 -1.93272,-70.037074 7.05869,-17.12697 21.54267,-31.7568 39.90673,-36.07923 11.83041,5.06034 23.03646,12.13573 30.96424,22.44767 12.0092,14.80377 18.18005,33.876784 18.54675,52.831334 -11.84712,-1.18439 -23.11815,-5.11863 -34.18093,-9.29381 -7.99437,-4.99274 -15.52662,2.58875 -14.56222,10.8241 -0.50216,14.19243 3.72467,30.12624 16.38912,38.17209 13.36731,8.28706 30.00103,11.3683 45.51203,9.07662 z"
     id="path80"
     inkscape:connector-curvature="0" />
  <path
     d="m 963.71431,173.77738 c 1.122,0.144 2.242,0.309 3.34,0.586 2.74,0.693 5.051,2.155 6.464,4.677 0.816,1.459 0.999,3.043 0.436,4.637 -0.825,2.339 -2.465,3.287 -4.562,4.397 -1.91,0.376 -3.792,0.732 -5.668,-0.002 -1.834,-0.717 -3.354,-2.499 -4.143,-4.262 q -0.17,-0.378 -0.299,-0.773 -0.129,-0.394 -0.215,-0.8 -0.085,-0.406 -0.127,-0.819 -0.042,-0.413 -0.04,-0.828 0.002,-0.415 0.049,-0.827 0.046,-0.413 0.137,-0.817 0.09,-0.405 0.223,-0.799 0.134,-0.393 0.308,-0.769 c 0.907,-1.947 2.147,-2.845 4.097,-3.601 z"
     id="path82"
     inkscape:connector-curvature="0" />
  <path
     d="m 921.87631,127.77338 c 12.916,9.125 22.098,12.138 28.362,27.736 0.996,2.478 2.305,5.227 2.808,7.837 0.298,1.54 0.177,2.977 -0.838,4.251 -0.775,0.972 -2.264,1.741 -3.334,2.297 -2.556,-7.142 -6.051,-16.143 -10.848,-22.015 -3.22,-3.94 -14.665,-10.434 -16.057,-13.754 z"
     id="path84"
     inkscape:connector-curvature="0" />
  <path
     d="m 921.96931,134.12538 c 1.392,3.32 12.837,9.814 16.057,13.754 4.797,5.872 8.292,14.873 10.848,22.015 -1.215,0.415 -2.524,0.806 -3.826,0.752 -4.833,-0.2 -9.378,-3.744 -12.578,-7.114 -7.771,-8.185 -10.78,-18.295 -10.501,-29.407 z"
     id="path86"
     inkscape:connector-curvature="0"
     style="fill:#ed3b18" />
  <path
     id="path88"
     d="m 591.28331,342.72938 c 17.565,-7.15 36.662,-13.901 53.366,-22.694 13.468,20.59 27.687,28.823 49.031,39.791 7.024,3.609 14.081,6.972 20.589,11.481 -10.241,9.866 -14.762,18.783 -22.599,29.807 -41.728,5.09 -80.741,29.29 -106.507,62.145 -8.797,11.218 -16.621,23.975 -21.891,37.209 -1.517,-0.965 -2.671,-1.548 -4.431,-1.944 -7.228,-6.069 -13.909,-13.037 -20.05,-20.193 -13.165,5.512 -26.718,10.109 -39.999,15.332 -34.875,13.715 -69.903,27.578 -105.249,40.044 7.962,-5.711 16.497,-10.897 24.649,-16.37 l 66.73,-44.006 c 10.742,-6.973 21.924,-13.614 32.323,-21.077 17.934,-11.46 37.003,-21.658 55.694,-31.847 15.491,-8.445 30.907,-17.148 46.622,-25.168 -11.509,-15.792 -22.893,-33.509 -28.278,-52.51 z m -32.442,155.795 c 1.76,0.396 2.914,0.979 4.431,1.944 l -1.607,3.245 c -5.776,1.205 -11.762,3.735 -17.375,5.675 q -15.348,5.471 -30.905,10.313 c 13.531,-8.079 30.841,-15.031 45.456,-21.177 z"
     style="fill:#ed3b18;fill-opacity:1"
     inkscape:connector-curvature="0" />
  <path
     d="m 220.77289,94.5107 c 14.55103,-0.245 43.21271,0 43.21271,0 l -30,34 c 0,0 -32.80771,-1.8147 -40.97237,10.3168 -4.74714,6.1121 -22.52703,34.859 -12.03087,44.2392 7.8557,6.654 41.00324,4.444 41.00324,4.444 l -12,34 c 0,0 -45.89428,1.992 -62.54463,-10.151 -7.64565,-5.575 -11.35948,-13.55 -12.17241,-22.111 -1.93015,-20.325 14.63845,-57.162 29.22582,-72.237 13.99128,-14.459 35.17407,-21.066 56.27851,-22.501 z"
     id="path70"
     inkscape:connector-curvature="0"
     style="fill:#ed3b18;fill-opacity:1;stroke-width:1.0655421"
     sodipodi:nodetypes="cccccccccsc" />
  <path
     d="m 180.9856,94.5107 c -14.60973,4.2292 -28.7698,15.9009 -39,34 0,0 -36.56107,-3.4004 -50.027003,11.5424 -7.99117,10.3676 -21.93958,30.8121 -10.96403,41.6076 6.72455,7.2019 34.760253,7.4223 44.991033,5.85 l -12,34 c -20.736733,1.2017 -52.190633,0.9803 -67.779073,-10.494 -8.31098,-6.41 -12.37564,-15.864 -13.02054,-25.43 -0.57677,-8.546 2.05277,-16.975 4.74021,-25.1 5.13533,-15.527 10.95642,-30.372 23.5194,-42.609 C 83.541557,92.7166 136.35422,94.869 180.9856,94.5107 Z"
     id="path76"
     inkscape:connector-curvature="0"
     style="fill:#ed3b18;fill-opacity:1;stroke-width:1.0655421"
     sodipodi:nodetypes="ccccccccccc" />
  <path
     d="m 433.98561,187.5107 74,-93 h 41 v 113 l 45,-113 h 32 l 21,49 63,-49 h 32 l -43,127 h -40 c 4.915,-17.029 18,-54 18,-54 l -50,40 -17,-49 -25,63 h -78 v -14 h -45 l -11,14 H 327.9856 l 32,-93 h -35 l -35,93 h -40 l 34,-93 h -38 l 30,-34 h 210.00001 l -28,34 h -53 l -5.00001,13 h 48.00001 l -26,33 H 389.9856 l -5,13"
     id="path90"
     inkscape:connector-curvature="0"
     style="fill:#fefefe;stroke-width:1.0655421"
     sodipodi:nodetypes="ccccccccccccccccccccccccccccccccccc" />
  <path
     d="m 506.98561,147.5107 v 28.993 l -20,-0.056 z"
     id="path92"
     inkscape:connector-curvature="0"
     sodipodi:nodetypes="cccc" />
</svg>
