<?xml version="1.0" encoding="UTF-8" standalone="no"?>
<svg
   width="1719.1647"
   height="645.67743"
   version="1.1"
   id="svg94"
   sodipodi:docname="ccteam7.svg"
   inkscape:version="1.4.3 (0d15f75, 2025-12-25)"
   inkscape:export-filename="E:\Yann\Applications\Chachatte Team app\logos\ccteam6.png"
   inkscape:export-xdpi="83"
   inkscape:export-ydpi="83"
   xmlns:inkscape="http://www.inkscape.org/namespaces/inkscape"
   xmlns:sodipodi="http://sodipodi.sourceforge.net/DTD/sodipodi-0.dtd"
   xmlns="http://www.w3.org/2000/svg"
   xmlns:svg="http://www.w3.org/2000/svg"
   xmlns:rdf="http://www.w3.org/1999/02/22-rdf-syntax-ns#"
   xmlns:cc="http://creativecommons.org/ns#"
   xmlns:dc="http://purl.org/dc/elements/1.1/">
  <metadata
     id="metadata100">
    <rdf:RDF>
      <cc:Work
         rdf:about="">
        <dc:format>image/svg+xml</dc:format>
        <dc:type
           rdf:resource="http://purl.org/dc/dcmitype/StillImage" />
      </cc:Work>
    </rdf:RDF>
  </metadata>
  <defs
     id="defs98" />
  <sodipodi:namedview
     pagecolor="#ffffff"
     bordercolor="#666666"
     borderopacity="1"
     objecttolerance="10"
     gridtolerance="10"
     guidetolerance="10"
     inkscape:pageopacity="0"
     inkscape:pageshadow="2"
     inkscape:window-width="1537"
     inkscape:window-height="774"
     id="namedview96"
     showgrid="false"
     inkscape:zoom="0.1767767"
     inkscape:cx="1750.7963"
     inkscape:cy="-616.5971"
     inkscape:window-x="1999"
     inkscape:window-y="59"
     inkscape:window-maximized="0"
     inkscape:current-layer="svg94"
     fit-margin-top="0"
     fit-margin-left="0"
     fit-margin-right="0"
     fit-margin-bottom="0"
     inkscape:showpageshadow="2"
     inkscape:pagecheckerboard="0"
     inkscape:deskcolor="#d1d1d1" />
  <path
     d="m 722.19719,128.25026 c 52.4309,-21.89339 106.3227,-39.88934 159.90615,-58.72443 47.56795,-16.722072 95.1915,-34.920232 144.26586,-46.743972 L 856.0446,108.63669 c -34.14176,16.83329 -75.88124,32.04897 -106.15589,54.54391 -10.12019,-10.16569 -20.47292,-22.56065 -27.69152,-34.93034 z"
     id="path6-3"
     inkscape:connector-curvature="0"
     style="fill:#ed3b18;stroke-width:5.05504" />
  <path
     id="path88-3"
     d="m 444.01301,380.65668 c 36.07299,-52.94701 0,0 -70.80851,23.01445 -20.10251,8.41664 -40.79748,15.4361 -61.07713,23.41145 -53.25296,20.94235 -106.73955,42.11069 -160.71171,61.14585 12.15771,-8.7205 25.19037,-16.63936 37.6382,-24.99644 l 101.89448,-67.1957 c 16.40267,-10.64754 33.47722,-20.78812 49.35615,-32.18387 C 549.64925,215.86176 685.168,82.072921 444.01301,380.65668 Z"
     style="fill:#ed3b18;fill-opacity:1;stroke-width:1.52697"
     inkscape:connector-curvature="0"
     sodipodi:nodetypes="cccccccc" />
  <path
     d="M 1074.9856,120.83605 993.0284,380.36719 H 155.699 C 110.52639,377.81367 55.601053,382.24441 23.426903,351.19315 -3.7137869,317.51216 -3.6634069,287.22542 5.5520331,250.5702 14.395213,215.56628 37.688883,177.1819 52.479363,163.33223 88.488663,121.82909 152.1856,120.83605 247.21787,120.83605 Z"
     id="path12-2"
     inkscape:connector-curvature="0"
     sodipodi:nodetypes="cccccccc"
     style="stroke-width:1.36595" />
  <path
     d="m 1479.5577,37.601562 c -0.6976,0.0049 -1.3949,0.0181 -2.0937,0.04102 -17.883,0.598 -36.3589,8.120281 -48.6329,21.363281 -13.767,14.854 -19.6644,36.79245 -22.3144,56.439447 -0.823,-1.929 -1.3455,-4.09265 -1.9785,-6.09765 -0.815,-2.033 -1.5152,-3.99991 -2.0352,-6.12891 -11.231,1.017 -22.51,1.88998 -33.664,3.58398 -5.779,0.879 -11.5578,2.89569 -17.3418,3.42969 -9.45,0.871 -15.7113,-2.75623 -26.5313,0.13477 -9.879,2.638 -18.7675,9.59562 -26.9355,15.51562 -27.264,19.763 -51.2952,42.46902 -75.2852,66.04102 -13.2,6.257 -122.8989,60.97151 -126.7559,59.97851 -4.68,17.295 -4.9,39.83458 -4.75,57.76758 -28.099,16.139 -55.6018,33.08021 -83.2148,50.0332 -2.739,1.68201 -16.11506,11.09182 -17.62306,11.50782 -4.313,3.349 -9.62007,5.9709 -14.33007,8.7539 -9.782,5.779 -19.65118,11.45711 -29.32618,17.41211 8.192,-2.254 16.25752,-5.77423 24.22852,-8.74023 7.29,-2.714 14.97469,-5.07153 22.05469,-8.26953 5.735,18.37 13.4454,37.15236 23.1074,53.81836 3.598,6.206 8.062,11.88336 11.625,18.06836 -10.399,7.463 -21.5802,14.10512 -32.32225,21.07812 l -66.73047,44.00586 c -8.152,5.473 -16.68643,10.65814 -24.64843,16.36914 35.346,-12.466 70.37304,-26.32797 105.24805,-40.04297 13.281,-5.223 26.835,-9.82003 40,-15.33203 6.141,7.156 12.8228,14.12241 20.0508,20.19141 1.76,0.396 2.9127,0.98031 4.4297,1.94531 l -1.6075,3.24414 c -51.9492,170.85224 157.2433,180.10204 207.2481,67.27344 17.261,-1.343 34.5728,-2.43383 51.7988,-4.17383 27.572,-2.784 69.44,-38.04419 69.44,-38.04419 17.3372,42.7032 43.3974,51.03468 56.38,57.35382 41.5803,18.66921 83.7004,9.57624 123.7581,-10.55768 9.435,-5.381 18.967,-12.89965 26.998,-20.22265 44.192,-40.3 72.3578,-101.66882 50.9258,-161.00782 -1.4506,-4.07733 -3.1746,-8.035 -5.1699,-11.875 -2.674,-5.064 -10.0172,-14.13418 -9.7832,-19.61718 l 0.4961,-0.24024 c 3.871,3.14 7.1977,7.14221 10.5977,10.78321 5.649,-10.212 8.9996,-22.3121 10.2656,-33.8711 3.523,-32.155 -7.5858,-78.55345 -27.8828,-103.68945 -2.002,-2.011 -4.0486,-4.46316 -5.4766,-6.91016 -16.512,-18.67 -35.0889,-31.16644 -58.2539,-40.14844 -9,-2.06799 -18.0201,-3.02415 -27.1641,-4.16015 13.766,9.13 23.6223,20.35809 31.5293,34.87109 2.413,4.429 3.0734,8.88456 1.4844,13.72656 -4.505,13.728 -19.7802,21.85536 -31.8242,27.81836 -7.461,-6.555 -15.2134,-13.79128 -24.4414,-17.73828 -9.792,-4.188 -18.5606,-2.59522 -28.1386,1.17578 -3.76,-8.73 -5.7675,-18.72306 -8.2325,-27.91406 4.352,1.756 8.6708,3.37197 13.3828,3.79297 7.123,0.636 13.4223,-2.14484 18.7383,-6.71484 10.477,-9.005 11.864,-20.72927 17.332,-32.57227 2.838,-6.148 6.9128,-11.89553 10.2988,-17.76953 6.185,-10.73 11.8221,-23.7972 13.7071,-36.1582 0.6,-3.933 0.5925,-7.98317 0.8925,-11.95117 -0.593,-20.924009 -7.5867,-40.078646 -23.1367,-54.681646 -15.8109,-14.570242 -36.7666,-23.040301 -58.3925,-22.888672 z"
     id="path12"
     inkscape:connector-curvature="0"
     sodipodi:nodetypes="ccccccccccccccccccccccccccccccccccccccccccccccccccccccccccc" />
  <path
     d="m 1631.7756,228.91438 c 10.372,-4.331 21.033,-7.891 31.633,-11.617 9.41,-3.308 18.831,-6.908 28.539,-9.247 l -33.694,16.984 c -6.754,3.33 -15.011,6.34 -21,10.79 -2.002,-2.011 -4.05,-4.463 -5.478,-6.91 z"
     id="path6"
     inkscape:connector-curvature="0"
     style="fill:#ed3b18" />
  <path
     d="m 1561.0866,115.17238 c 15.824,-7.267 31.875,-13.899 47.81,-20.896004 l 53.899,-24.27 39.246,-17.794 c 5.567,-2.505 11.349,-5.729 17.123,-7.631 -40.281,25.878 -79.741,52.972 -120.201,78.556004 -14.104,8.919 -28.265,18.553 -42.854,26.626 6.802,11.898 14.68,25.44 17.412,39.002 -9,-2.068 -18.019,-3.024 -27.163,-4.16 13.766,9.13 23.622,20.358 31.529,34.871 2.413,4.429 3.073,8.885 1.484,13.727 -4.505,13.728 -19.78,21.856 -31.824,27.819 -7.461,-6.555 -15.213,-13.793 -24.441,-17.74 -9.792,-4.188 -18.5609,-2.595 -28.1389,1.176 -3.76,-8.73 -5.767,-18.723 -8.232,-27.914 4.352,1.756 8.671,3.372 13.383,3.793 7.123,0.636 13.4219,-2.145 18.7379,-6.715 10.477,-9.005 11.864,-20.729 17.332,-32.572 2.838,-6.148 6.912,-11.896 10.298,-17.77 6.185,-10.73 11.822,-23.797 13.707,-36.158 0.6,-3.933 0.593,-7.982 0.893,-11.95 z"
     id="path8"
     inkscape:connector-curvature="0"
     style="fill:#ed3b18" />
  <path
     d="m 990.40165,371.21138 c -3.44667,-12.90267 -6.092,-25.96733 -7.936,-39.194 -10.668,-78.995 9.122,-157.011 57.64505,-220.422 45.3257,-59.190744 113.6887,-98.584705 187.08,-109.024005 69.456,-9.227 141.649,6.201 197.805,49.152001 -12.638,12.131 -18.646,26.846 -22.445,43.683 -16.406,1.396 -36.986,3.134 -52.601,7.825004 -1.639,-0.686 -3.42,-1.145 -5.165,-1.482 -20.833,-4.026004 -36.748,7.745 -53.039,18.581 -39.093,-5.721 -78.744,0.541 -113.08,20.554 -42.099,24.538 -70.222,64.334 -82.677,111.017 -4.68,17.295 -4.899,39.836 -4.749,57.769 -28.099,16.139 -55.603,33.08 -83.216,50.033 -2.739,1.682 -16.11405,11.092 -17.62205,11.508 z"
     id="path10"
     inkscape:connector-curvature="0"
     sodipodi:nodetypes="cccccccccccccc" />
  <path
     d="m 1506.8317,265.39938 c 5.8249,-0.533 11.4699,1.62 16.8819,3.459 q -11.039,1.51 -22.0199,3.391 c -5.548,0.947 -11.071,1.955 -16.684,2.427 6.234,-4.446 14.271,-7.971 21.822,-9.277 z"
     id="path14"
     inkscape:connector-curvature="0"
     style="fill:#ed3b18" />
  <path
     d="m 1372.1027,218.15738 c 0.606,0.724 0.497,0.474 0.816,1.237 2.547,6.093 11.706,30.862 9.789,35.971 l -1.379,0.493 c -0.926,-0.587 -1.737,-1.205 -2.269,-2.184 -2.34,-4.312 -3.428,-10.208 -4.932,-14.901 -1.774,-5.532 -3.852,-10.96 -5.635,-16.492 1.249,-1.33 2.417,-2.743 3.61,-4.124 z"
     id="path16"
     inkscape:connector-curvature="0"
     style="fill:#fefefe" />
  <path
     d="m 1293.9357,289.99238 c 2.26,-2.362 4.457,-4.576 7.066,-6.555 2.124,10.152 3.914,18.624 10.748,26.782 7.498,8.334 15.585,15.48 25.701,20.451 q -1.613,6.608 -2.92,13.284 c -6.445,-13.768 -12.212,-22.323 -23.011,-32.974 -6.184,-6.713 -11.919,-13.838 -17.584,-20.988 z"
     id="path18"
     inkscape:connector-curvature="0"
     style="fill:#ed3b18" />
  <path
     d="m 1423.1417,290.95038 6.9,2.652 c -4.008,9.783 -8.095,19.55 -13.207,28.813 -2.524,-0.656 -5.025,-1.414 -7.531,-2.136 4.429,-9.847 8.815,-19.767 13.838,-29.329 z"
     id="path20"
     inkscape:connector-curvature="0"
     style="fill:#fefefe" />
  <path
     d="m 1430.6447,209.15938 c 0.012,0.979 -0.149,1.944 -0.404,2.885 -5.146,19.005 -17.003,36.987 -34.19,47 -2.008,-0.723 -4.088,-1.309 -6.123,-1.956 -1.132,-0.38 -0.634,-0.113 -1.515,-0.756 2.992,-2.292 6.503,-3.851 9.54,-6.27 13.364,-10.644 25.061,-25.748 32.692,-40.903 z"
     id="path22"
     inkscape:connector-curvature="0"
     style="fill:#fefefe" />
  <path
     d="m 1459.0727,232.82338 c 4.687,4.821 16.21,25.202 19.911,32.046 l -6.98,3.538 c -1.007,0.335 -0.463,0.289 -1.639,0.019 -4.368,-5.441 -14.551,-23.598 -17.629,-30.354 2.022,-1.872 4.169,-3.551 6.337,-5.249 z"
     id="path24"
     inkscape:connector-curvature="0"
     style="fill:#fefefe" />
  <path
     d="m 1404.5387,109.34838 c 0.633,2.005 1.156,4.168 1.979,6.097 -3.324,2.933 -5.236,6.599 -9.81,7.78 -3.494,0.902 -7.189,1.281 -10.775,1.599 -11.388,1.013 -12.807,-2.827 -21.918,-8.203 13.331,-1.272 27.666,-3.532 40.524,-7.273 z"
     id="path26"
     inkscape:connector-curvature="0"
     style="fill:#ed3b18" />
  <path
     d="m 1235.6447,380.62438 c 1.313,1.356 1.283,5.395 1.575,7.408 2.192,15.108 9.069,27.636 21.363,36.832 -2.703,-0.99 -5.386,-2.045 -8.076,-3.071 -4.472,-1.7 -9.069,-4.196 -12.691,-7.354 -7.211,-6.287 -9.638,-14.683 -10.215,-23.891 2.177,-3.852 4.917,-6.837 8.044,-9.924 z"
     id="path28"
     inkscape:connector-curvature="0"
     style="fill:#fefefe" />
  <path
     d="m 1509.1387,372.14438 c 2.6309,2.949 18.4939,61.063 20.9069,70.141 -0.998,0.962 -2.494,1.008 -3.835,1.313 -1.625,-1.356 -19.5279,-60.422 -21.2759,-67.399 1.358,-1.389 2.804,-2.708 4.204,-4.055 z"
     id="path30"
     inkscape:connector-curvature="0"
     style="fill:#fefefe" />
  <path
     d="m 1155.7757,494.09938 0.569,0.117 0.347,0.67 c -1.624,3.874 -6.297,8.114 -8.942,11.484 -7.707,9.82 -11.728,21.587 -10.112,34.146 0.916,7.117 3.998,13.981 9.885,18.351 5.784,4.292 13.124,5.618 20.15,4.544 9.882,-1.51 18.271,-7.23 24.082,-15.212 1.205,0.384 2.358,0.8 3.529,1.28 l 0.39,0.95 -0.867,1.43 c -2.516,2.518 -5.094,4.969 -7.95,7.101 -8.509,6.352 -19.24,9.928 -29.892,8.185 -7.1202,-1.06622 -13.4662,-5.26894 -17.696,-10.872 -5.813,-7.938 -6.526,-18.051 -5.081,-27.498 2.151,-14.057 10.217,-26.305 21.588,-34.676 z"
     id="path32"
     inkscape:connector-curvature="0"
     style="fill:#fefefe"
     sodipodi:nodetypes="cccccccccccccccc" />
  <path
     d="m 1198.1807,283.17638 c 5.38,1.077 11.212,4.135 16.217,6.422 24.308,11.108 50.541,25.015 71.649,41.451 2.786,2.169 5.841,4.245 8.332,6.75 l -0.043,0.691 -1.645,0.26 c -3.445,0.78 -6.725,1.664 -9.971,3.07 -9.626,-9.304 -23.093,-17.509 -34.212,-25.078 -16.699,-11.368 -33.276,-22.715 -50.327,-33.566 z"
     id="path34"
     inkscape:connector-curvature="0"
     style="fill:#fefefe" />
  <path
     d="m 1277.0877,437.80738 c -0.084,2.568 -3.773,7.012 -5.019,9.396 -13.855,26.525 -26.278,48.255 -22.717,79.327 -3.131,-4.572 -6.67,-8.817 -10.346,-12.955 -4.006,-4.564 -8.287,-8.291 -13.114,-11.973 8.442,-11.198 17.72,-21.811 26.275,-32.935 6.434,-8.365 12.109,-17.497 18.977,-25.498 1.807,-2.106 3.593,-3.844 5.944,-5.362 z"
     id="path36"
     inkscape:connector-curvature="0"
     style="fill:#ed3b18" />
  <path
     d="m 1221.0867,397.16638 c 0.554,0.675 0.413,0.35 0.61,1.212 1.306,5.718 3.149,11.012 5.563,16.36 -8.159,10.075 -15.923,20.503 -23.951,30.688 -13.802,17.509 -27.678,34.564 -38.598,54.086 l -3.454,5.975 c 8.114,-28.026 26.244,-53.422 41.128,-78.215 5.92,-9.862 11.424,-21.221 18.702,-30.106 z"
     id="path38"
     inkscape:connector-curvature="0"
     style="fill:#fefefe" />
  <path
     style="fill:#fefefe"
     d="m 1152.9477,507.61638 c 2.2645,4.46363 2.6852,9.65893 5.0256,14.10902 2.9098,6.349 7.9763,11.46361 13.861,15.12294 4.5513,3.12398 9.6602,5.40565 13.9754,8.87204 -0.6671,2.89821 -3.4411,4.63357 -5.7431,6.23422 -3.5951,2.25644 -7.37,4.41203 -11.6174,5.10451 -5.8579,1.30774 -12.5168,0.63308 -17.2219,-3.38333 -6.1653,-5.15448 -8.4028,-13.69585 -7.7723,-21.46634 0.7223,-8.89718 4.7007,-17.20003 9.4927,-24.59306 z"
     id="path40"
     inkscape:connector-curvature="0" />
  <path
     d="m 1443.1797,243.25038 c 2.754,3.44 4.858,7.809 7.117,11.599 4.13,6.931 8.417,13.8 12.221,20.916 -5.26,1.977 -10.435,4.39 -15.606,6.598 -5.227,-1.095 -10.202,-2.729 -15.222,-4.517 -8.251,-3.19 -17.439,-6.567 -25.06,-11.031 11.764,-8.428 24.228,-15.982 36.55,-23.565 z"
     id="path42"
     inkscape:connector-curvature="0"
     style="fill:#ed3b18" />
  <path
     style="fill:#ed3b18"
     d="m 1294.1887,345.36238 c 5.3651,-0.55897 11.049,0.85118 15.0952,4.5265 6.4838,5.61462 8.1704,15.76596 4.1548,23.2885 -2.6734,5.24669 -7.9299,9.0272 -13.6715,10.14239 -4.7749,0.41453 -9.8696,-0.23017 -13.8271,-3.1318 -5.7744,-3.98299 -8.961,-11.29395 -7.9758,-18.23659 0.6657,-6.04744 4.6333,-11.45609 9.9951,-14.2386 1.9581,-1.05998 4.0661,-1.83083 6.2293,-2.3504 z"
     id="path44"
     inkscape:connector-curvature="0" />
  <path
     d="m 1537.5716,409.45638 c 11.526,-1.047 21.762,0.848 30.829,8.424 8.271,6.911 12.754,16.412 13.676,27.106 1.444,16.752 -6.028,33.09 -16.688,45.625 -11.344,13.339 -27.622,22.692 -45.241,23.933 -10.5339,0.742 -21.5159,-2.029 -29.5789,-9.079 -7.272,-6.358 -10.581,-15.231 -11.157,-24.716 -0.984,-16.21 6.066,-30.233 16.51,-42.117 0.57,-0.578 1.242,-1.025 1.891,-1.51 l 0.736,0.306 c 0.612,1.135 1.087,1.407 0.525,2.669 -1.419,3.183 -4.915,6.387 -7.038,9.187 -6.068,8.006 -8.924,20.183 -8.312,30.087 0.552,8.953 3.935,17.553 10.908,23.427 7.701,6.487 17.3539,8.187 27.1469,7.29 16.578,-1.519 31.263,-10.729 41.664,-23.475 9.433,-11.56 16.023,-26.388 14.4,-41.583 -0.999,-9.355 -5.188,-17.938 -12.607,-23.844 -10.051,-8.001 -21.139,-8.437 -33.407,-7.003 -0.955,-0.913 -1.105,-1.134 -1.503,-2.391 l 0.703,-1.028 c 2.103,-1.067 4.236,-1.11 6.543,-1.308 z"
     id="path46"
     inkscape:connector-curvature="0"
     style="fill:#fefefe" />
  <path
     d="m 1299.2587,200.13338 c 1.893,2.013 9.696,12.885 10.641,15.22 1.931,4.769 2.047,11.166 2.677,16.247 1.854,14.947 4.069,43.657 10.74,56.344 1.502,2.858 3.533,5.557 6.317,7.274 5.429,3.349 13.253,4.484 19.409,5.915 q 13.312,3.162 26.697,5.997 c 7.819,1.582 15.8,2.77 23.428,5.141 l -2.887,5.143 c -0.718,1.119 -0.808,1.609 -2.228,1.814 -4.463,0.643 -10.72,-0.858 -15.235,-1.335 -8.879,-0.937 -18.35,-0.847 -27.044,-2.754 -4.433,-0.973 -8.864,-2.72 -13.155,-4.195 -5.249,-1.805 -10.303,-3.723 -14.842,-6.997 -3.448,-2.487 -6.36,-5.559 -8.299,-9.375 -4.643,-9.134 -5.995,-19.898 -7.662,-29.888 q -2.955,-17.528 -5.073,-35.177 c -1.143,-9.787 -1.93,-19.642 -3.484,-29.374 z"
     id="path50"
     inkscape:connector-curvature="0"
     style="fill:#fefefe" />
  <path
     d="m 1581.1516,203.12738 c 9.353,0.349 34.473,22.586 41.483,30.106 19.533,20.956 33.765,56.994 32.79,85.731 -2.59,-2.959 -4.351,-6.584 -6.858,-9.634 -7.036,-8.558 -15.32,-15.681 -24.128,-22.331 -0.435,-4.705 -0.969,-9.455 -1.636,-14.133 -3.843,-26.939 -20.032,-53.418 -41.651,-69.739 z"
     id="path52"
     inkscape:connector-curvature="0"
     style="fill:#ed3b18" />
  <path
     d="m 1589.6976,280.61438 c 0.271,0.054 0.544,0.103 0.815,0.163 6.583,1.448 13.162,4.138 19.273,6.936 19.914,9.119 34.153,21.734 45.65,40.463 -0.074,7.098 -0.955,14.139 -2.922,20.96 l -0.451,0.838 c -2.04,0.085 -11.585,-6.671 -14.47,-8.224 -9.981,-5.371 -20.052,-9.87 -30.695,-13.756 0.417,-2.215 0.679,-4.51 0.84,-6.757 1.258,-17.574 -7.066,-28.092 -18.04,-40.623 z"
     id="path54"
     inkscape:connector-curvature="0"
     style="fill:#fefefe" />
  <path
     d="m 1181.8667,435.31338 0.525,0.127 c -0.297,3.093 -7.264,13.621 -9.155,16.915 -0.406,0.112 -0.814,0.217 -1.215,0.347 -23.953,7.739 -44.545,30.314 -55.821,52.106 -8.183,15.813 -10.7903,31.06636 -9.744,53.045 9.9843,66.88202 88.4684,41.58988 111.8886,22.30359 l 15.7152,5.36001 c -82.5958,58.73808 -129.2189,21.87188 -139.0738,-14.1516 -6.16,-25.127 -0.265,-53.326 12.175,-75.618 15.576,-27.911 43.787,-51.555 74.705,-60.434 z"
     id="path56"
     inkscape:connector-curvature="0"
     style="fill:#fefefe"
     sodipodi:nodetypes="ccccccccccc" />
  <path
     d="m 1488.4867,288.40238 c 3.924,-0.597 10.203,2.956 13.607,4.823 9.9309,5.446 22.4929,14.607 27.7739,24.92 1.068,2.086 1.674,4.451 2.327,6.695 -3.929,-2.316 -7.426,-5.857 -10.943,-8.767 -10.198,-8.435 -20.8229,-17.226 -33.1009,-22.393 11.783,10.056 26.5509,25.26 29.9859,40.69 -12.7299,-11.562 -22.0849,-24.673 -38.2669,-31.983 5.022,8.299 11.541,15.48 16.968,23.494 2.232,3.824 3.394,7.875 4.541,12.119 -5.382,-3.402 -9.457,-8.953 -13.84,-13.516 -5.332,-5.551 -11.817,-11.467 -18.196,-15.799 3.838,8.848 9.866,15.945 15.101,23.942 3.471,5.302 6.092,10.94 8.397,16.828 -7.728,-4.429 -24.534,-22.935 -30.438,-30.108 0.7,4.012 1.424,7.916 2.627,11.811 q -12.606,-1.35 -24.977,-4.122 c -1.977,-5.57 -3.229,-10.915 -3.459,-16.822 10.624,-12.414 36.056,-19.041 51.893,-21.812 z"
     id="path58"
     inkscape:connector-curvature="0"
     style="fill:#ed3b18" />
  <path
     d="m 1466.8477,49.690376 c 21.32,-2.861 41.814,0.821 59.1869,14.148 13.516,10.368 22.716,25.266 24.952,42.266004 0.833,6.331 0.707,12.727 0.238,19.081 -11.763,1.383 -23.118,0.744 -34.866,-0.216 -0.1694,-9.80684 -1.922,-19.40562 -5.021,-28.353004 -5.3319,-15.446 -15.7559,-30.155 -29.5559,-39.142 -4.649,-3.028 -9.955,-5.342 -14.934,-7.784 z"
     id="path60"
     inkscape:connector-curvature="0"
     style="fill:#ed3b18"
     sodipodi:nodetypes="cccccccc" />
  <path
     d="m 1538.6836,420.45438 c 3.513,-0.641 7.738,-0.139 11.159,0.82 7.5935,2.11684 13.7784,7.30235 17.589,14.06 4.421,8.241 3.923,19.552 1.349,28.322 -4.095,13.954 -15.287,27.218 -28.038,34.088 -9.607,5.177 -21.513,8.106 -32.2029,4.737 -7.099,-2.237 -11.903,-6.743 -15.327,-13.211 -1.441,-3.833 -2.395,-7.467 -2.661,-11.573 -0.776,-11.937 4.134,-22.662 11.859,-31.491 3.705,8.218 5.243,21.475 12.1559,27.5 3.317,2.891 7.701,3.882 12.012,3.38 6.309,-0.734 11.976,-4.609 15.734,-9.618 3.082,-4.108 5.179,-9.567 4.189,-14.753 -0.921,-4.829 -3.597,-7.169 -7.502,-9.682 -2.443,-7.091 -4.43,-14.42 -6.394,-21.66 1.98,-0.473 4.061,-0.652 6.078,-0.919 z"
     id="path62"
     inkscape:connector-curvature="0"
     style="fill:#fefefe"
     sodipodi:nodetypes="cccccccccccccccc" />
  <path
     d="m 1399.6047,334.40738 c 7.883,0.698 15.803,0.881 23.689,1.556 q 21.811,1.738 43.292,5.893 c -8.665,1.863 -17.386,2.598 -26.022,4.862 -25.451,6.672 -48.323,17.739 -70.781,31.274 -7.642,4.606 -15.41,9.253 -22.314,14.934 -12.743,10.484 -24.311,23.386 -35.208,35.738 -5.58,6.611 -11.626,12.84 -17.313,19.362 -5.142,5.895 -9.765,12.395 -15.545,17.687 8.093,-16.746 21.741,-35.324 32.07,-51.2 4.841,-7.44 9.85,-14.767 13.427,-22.928 3.354,-7.655 5.37,-15.616 6.559,-23.867 16.723,-12.295 32.82,-21.28 52.394,-28.381 5.114,-1.855 10.401,-3.905 15.752,-4.93 z"
     id="path64"
     inkscape:connector-curvature="0"
     style="fill:#ed3b18" />
  <path
     style="fill:#ed3b18"
     d="m 1342.1027,132.95638 c 17.2455,-1.9109 35.0433,8.6321 41.4101,24.81756 7.5291,18.25092 0.4323,41.60595 -16.7713,51.70972 -7.367,4.26612 -15.9067,6.88296 -24.4527,6.738 -16.2307,-0.70587 -31.4808,-11.66133 -37.1051,-26.94228 -7.4761,-18.45462 1.0253,-41.58306 18.4894,-51.02008 5.6685,-3.08313 12.045,-4.64207 18.4296,-5.30292 z"
     id="path66"
     inkscape:connector-curvature="0" />
  <path
     d="m 1344.2777,144.93138 c 10.201,-0.6396 20.0168,5.38074 25.5153,13.7464 2.5972,4.07396 3.9707,8.79638 4.7367,13.5316 -6.1155,-0.59814 -12.2678,-0.36994 -18.399,-0.231 -1.8985,-3.69424 -5.0015,-7.65073 -9.558,-7.64605 -5.6101,-0.10932 -11.0517,4.3316 -11.374,10.07305 -0.7818,6.19493 4.3466,12.99424 10.8913,12.49228 3.4706,-0.21799 6.4075,-2.32473 9.0807,-4.35928 5.5643,0.65563 11.091,1.68538 16.532,3.017 -3.0316,6.14435 -7.5307,11.81759 -13.7829,14.89494 -11.8284,5.96386 -27.8699,3.16857 -36.1104,-7.48952 -8.0335,-10.1619 -7.924,-25.62387 -0.09,-35.86892 5.263,-7.19644 13.8601,-11.15242 22.5578,-12.1605 z"
     id="path68"
     inkscape:connector-curvature="0"
     sodipodi:nodetypes="cccccccccccccc" />
  <path
     d="m 1551.5996,365.46238 c 0.135,-0.021 0.269,-0.048 0.404,-0.062 18.212,-1.866 38.515,4.268 52.521,15.997 15.187,12.718 22.955,31.285 24.612,50.76 2.624,30.817 -10.291,60.943 -29.848,84.217 -21.392,25.457 -52.57,45.854 -86.399,48.579 -20.2319,1.63 -39.6879,-3.117 -55.3089,-16.417 -14.396,-12.258 -22.721,-29.941 -24.051,-48.721 -2.476,-34.944 13.545,-63.973 35.609,-89.567 2.962,-3.131 5.935,-6.15 9.161,-9.01 -1.615,16.515 -7.427,20.384 -15.652,33.848 -11.7848,19.82098 -18.2566,47.08237 -13.606,68.271 3.2494,14.61301 11.9641,27.58584 24.1,36.107 15.001,10.417 34.694,12.225 52.2719,8.966 28.797,-5.341 54.239,-24.801 70.49,-48.75 13.872,-20.442 21.722,-46.649 16.783,-71.315 -3.295,-16.453 -12.471,-31.803 -26.568,-41.155 -12.25,-8.126 -27.817,-11.627 -42.402,-10.219 -5.724,0.552 -11.435,1.944 -17.065,3.099 -0.626,-2.933 -1.388,-5.811 -2.178,-8.703 9.047,-2.943 17.63,-5.057 27.126,-5.925 z"
     id="path74"
     inkscape:connector-curvature="0"
     style="fill:#fefefe"
     sodipodi:nodetypes="ccscccccccccccccccccc" />
  <path
     d="m 1095.9887,251.90138 c 3.857,0.993 113.557,-53.72 126.757,-59.977 -0.185,0.261 -0.368,0.524 -0.557,0.782 -2.188,2.981 -5.149,5.659 -7.681,8.371 -5.836,6.251 -11.825,12.38 -17.583,18.7 -16.186,17.767 -29.644,39.527 -36.604,62.59 -2.519,8.346 -3.939,16.907 -6.27,25.277 -24.25,10.832 -48.598,21.677 -72.663,32.912 -29.297,13.677 -58.346,27.729 -88.35905,39.81 -7.08,3.198 -14.764,5.557 -22.054,8.271 -7.971,2.966 -16.037,6.485 -24.229,8.739 9.675,-5.955 19.543,-11.633 29.325,-17.412 4.71,-2.783 10.018,-5.404 14.331,-8.753 1.508,-0.416 14.88305,-9.826 17.62205,-11.508 27.613,-16.953 55.117,-33.894 83.216,-50.033 -0.15,-17.933 0.069,-40.474 4.749,-57.769 z"
     id="path78"
     inkscape:connector-curvature="0"
     style="fill:#ed3b18" />
  <path
     style="fill:#fefefe"
     d="m 1529.5166,173.74838 c -5.6803,11.15139 -7.0549,25.56477 -18.3364,32.94805 -8.5303,5.5823 -19.0234,1.00373 -27.2592,-2.84808 -21.6727,-11.40342 -41.8507,-27.14314 -55.0474,-48.04167 -13.2723,-20.90894 -11.4499,-48.04325 -1.9327,-70.037074 7.0587,-17.12697 21.5427,-31.7568 39.9068,-36.07923 11.8304,5.06034 23.0364,12.13573 30.9642,22.44767 12.0092,14.80377 18.18,33.876784 18.5467,52.831334 -11.8471,-1.18439 -23.1181,-5.11863 -34.1809,-9.29381 -7.9944,-4.99274 -15.5266,2.58875 -14.5622,10.8241 -0.5022,14.19243 3.7247,30.12624 16.3891,38.17209 13.3673,8.28706 30.001,11.3683 45.512,9.07662 z"
     id="path80"
     inkscape:connector-curvature="0" />
  <path
     d="m 1474.2307,173.77738 c 1.122,0.144 2.242,0.309 3.34,0.586 2.74,0.693 5.051,2.155 6.464,4.677 0.816,1.459 0.999,3.043 0.436,4.637 -0.825,2.339 -2.465,3.287 -4.562,4.397 -1.91,0.376 -3.792,0.732 -5.668,-0.002 -1.834,-0.717 -3.354,-2.499 -4.143,-4.262 q -0.17,-0.378 -0.299,-0.773 -0.129,-0.394 -0.215,-0.8 -0.085,-0.406 -0.127,-0.819 -0.042,-0.413 -0.04,-0.828 0,-0.415 0.049,-0.827 0.046,-0.413 0.137,-0.817 0.09,-0.405 0.223,-0.799 0.134,-0.393 0.308,-0.769 c 0.907,-1.947 2.147,-2.845 4.097,-3.601 z"
     id="path82"
     inkscape:connector-curvature="0" />
  <path
     d="m 1432.3927,127.77338 c 12.916,9.125 22.098,12.138 28.362,27.736 0.996,2.478 2.305,5.227 2.808,7.837 0.298,1.54 0.177,2.977 -0.838,4.251 -0.775,0.972 -2.264,1.741 -3.334,2.297 -2.556,-7.142 -6.051,-16.143 -10.848,-22.015 -3.22,-3.94 -14.665,-10.434 -16.057,-13.754 z"
     id="path84"
     inkscape:connector-curvature="0" />
  <path
     d="m 1432.4857,134.12538 c 1.392,3.32 12.837,9.814 16.057,13.754 4.797,5.872 8.292,14.873 10.848,22.015 -1.215,0.415 -2.524,0.806 -3.826,0.752 -4.833,-0.2 -9.378,-3.744 -12.578,-7.114 -7.771,-8.185 -10.78,-18.295 -10.501,-29.407 z"
     id="path86"
     inkscape:connector-curvature="0"
     style="fill:#ed3b18" />
  <path
     id="path88"
     d="m 1101.7997,342.72938 c 17.565,-7.15 36.662,-13.901 53.366,-22.694 13.468,20.59 27.687,28.823 49.031,39.791 7.024,3.609 14.081,6.972 20.589,11.481 -10.241,9.866 -14.762,18.783 -22.599,29.807 -41.728,5.09 -80.741,29.29 -106.507,62.145 -8.797,11.218 -16.621,23.975 -21.891,37.209 -1.517,-0.965 -2.671,-1.548 -4.431,-1.944 -7.228,-6.069 -13.909,-13.037 -20.05,-20.193 -13.165,5.512 -26.718,10.109 -39.999,15.332 -34.87505,13.715 -69.90305,27.578 -105.24905,40.044 7.962,-5.711 16.497,-10.897 24.649,-16.37 l 66.73,-44.006 c 10.74205,-6.973 21.92405,-13.614 32.32305,-21.077 17.934,-11.46 37.003,-21.658 55.694,-31.847 15.491,-8.445 30.907,-17.148 46.622,-25.168 -11.509,-15.792 -22.893,-33.509 -28.278,-52.51 z m -32.442,155.795 c 1.76,0.396 2.914,0.979 4.431,1.944 l -1.607,3.245 c -5.776,1.205 -11.762,3.735 -17.375,5.675 q -15.348,5.471 -30.905,10.313 c 13.531,-8.079 30.841,-15.031 45.456,-21.177 z"
     style="fill:#ed3b18;fill-opacity:1"
     inkscape:connector-curvature="0" />
  <path
     d="m 301.56545,163.1806 c 19.87603,-0.33466 59.02655,0 59.02655,0 l -40.97861,46.44242 c 0,0 -44.81379,-2.4788 -55.96634,14.09226 -6.48437,8.34885 -30.77087,47.61577 -16.4336,60.42868 10.73051,9.08906 56.00851,6.0703 56.00851,6.0703 l -16.39144,46.44242 c 0,0 -62.68944,2.72097 -85.43305,-13.86579 -10.44359,-7.6152 -15.51652,-18.50867 -16.62694,-30.2026 -2.6365,-27.763 19.99543,-78.08062 39.92111,-98.67238 19.11143,-19.75031 48.04613,-28.77517 76.87381,-30.73531 z"
     id="path70"
     inkscape:connector-curvature="0"
     style="fill:#ed3b18;fill-opacity:1;stroke-width:1.45548"
     sodipodi:nodetypes="cccccccccsc" />
  <path
     d="m 247.21787,163.1806 c -19.95621,5.77689 -39.2982,21.71989 -53.27217,46.44242 0,0 -49.94072,-4.64479 -68.33456,15.76638 -10.91556,14.16165 -29.968437,42.08789 -14.97635,56.83404 9.18542,9.83746 47.48088,10.13852 61.45564,7.99082 L 155.699,336.65668 c -28.32541,1.64146 -71.289967,1.33904 -92.583047,-14.33432 -11.35241,-8.75576 -16.90454,-21.66949 -17.78545,-34.73619 -0.78784,-11.67344 2.80399,-23.18706 6.4749,-34.28543 7.01463,-21.20916 14.96597,-41.48674 32.12641,-58.20191 C 114.11386,160.72994 186.25348,163.67002 247.21787,163.1806 Z"
     id="path76"
     inkscape:connector-curvature="0"
     style="fill:#ed3b18;fill-opacity:1;stroke-width:1.45548"
     sodipodi:nodetypes="ccccccccccc" />
  <path
     d="M 592.80408,290.21426 693.88462,163.1806 h 56.00409 v 154.35273 l 61.4679,-154.35273 h 43.71051 l 28.68501,66.93171 86.05506,-66.93171 h 43.71051 l -58.736,173.47608 h -54.63812 c 6.71366,-23.26083 24.58715,-73.76148 24.58715,-73.76148 l -68.29766,54.63813 -23.22121,-66.93172 -34.14883,86.05507 H 692.51867 v -19.12335 h -61.4679 l -15.02549,19.12335 H 448.01301 l 43.71051,-127.03366 h -47.80837 l -47.80837,127.03366 h -54.63813 l 46.44241,-127.03366 h -51.90622 l 40.9786,-46.44242 h 286.85021 l -38.2467,46.44242 h -72.39552 l -6.82978,17.75739 h 65.56577 l -35.51478,45.07645 h -43.71052 l -6.82977,17.7574"
     id="path90"
     inkscape:connector-curvature="0"
     style="fill:#fefefe;stroke-width:1.45548"
     sodipodi:nodetypes="ccccccccccccccccccccccccccccccccccc" />
  <path
     d="m 692.51867,235.57612 v 39.60309 l -27.31906,-0.0765 z"
     id="path92"
     inkscape:connector-curvature="0"
     sodipodi:nodetypes="cccc"
     style="stroke-width:1.36595" />
</svg>
