<?xml version="1.0" encoding="UTF-8" standalone="no"?>
<svg
   width="708.88062"
   height="127.5928"
   version="1.1"
   id="svg94"
   sodipodi:docname="ccteam_logo_text_only_black_white.svg"
   inkscape:version="1.4.3 (0d15f75, 2025-12-25)"
   xmlns:inkscape="http://www.inkscape.org/namespaces/inkscape"
   xmlns:sodipodi="http://sodipodi.sourceforge.net/DTD/sodipodi-0.dtd"
   xmlns="http://www.w3.org/2000/svg"
   xmlns:svg="http://www.w3.org/2000/svg"
   xmlns:rdf="http://www.w3.org/1999/02/22-rdf-syntax-ns#"
   xmlns:cc="http://creativecommons.org/ns#"
   xmlns:dc="http://purl.org/dc/elements/1.1/">
  <metadata
     id="metadata100">
    <rdf:RDF>
      <cc:Work
         rdf:about="">
        <dc:format>image/svg+xml</dc:format>
        <dc:type
           rdf:resource="http://purl.org/dc/dcmitype/StillImage" />
      </cc:Work>
    </rdf:RDF>
  </metadata>
  <defs
     id="defs98" />
  <sodipodi:namedview
     pagecolor="#ffffff"
     bordercolor="#666666"
     borderopacity="1"
     objecttolerance="10"
     gridtolerance="10"
     guidetolerance="10"
     inkscape:pageopacity="0"
     inkscape:pageshadow="2"
     inkscape:window-width="1920"
     inkscape:window-height="1009"
     id="namedview96"
     showgrid="false"
     inkscape:zoom="0.70710678"
     inkscape:cx="20.506097"
     inkscape:cy="166.17009"
     inkscape:window-x="1912"
     inkscape:window-y="-8"
     inkscape:window-maximized="1"
     inkscape:current-layer="svg94"
     fit-margin-top="0"
     fit-margin-left="0"
     fit-margin-right="0"
     fit-margin-bottom="0"
     inkscape:showpageshadow="2"
     inkscape:pagecheckerboard="0"
     inkscape:deskcolor="#d1d1d1" />
  <g
     id="g1">
    <path
       d="m 187.66717,0.10888889 c 14.55103,-0.245 43.21271,0 43.21271,0 l -30,34.00000011 c 0,0 -32.80771,-1.81466 -40.97237,10.31686 -4.74714,6.11202 -22.52703,34.859 -12.03087,44.23914 7.8557,6.654 41.00324,4.444 41.00324,4.444 l -12,34.000001 c 0,0 -45.89428,1.992 -62.54463,-10.151 -7.64565,-5.575 -11.35948,-13.55 -12.17241,-22.111001 -1.93015,-20.325 14.63845,-57.162 29.22582,-72.237 C 145.37994,8.1508889 166.56273,1.5438889 187.66717,0.10888889 Z"
       id="path70"
       inkscape:connector-curvature="0"
       style="fill:#000000;fill-opacity:1;stroke-width:1.0655421"
       sodipodi:nodetypes="cccccccccsc" />
    <path
       d="m 147.87988,0.10888889 c -14.60973,4.22920001 -28.7698,15.90096011 -39,34.00000011 0,0 -36.561075,-3.40037 -50.026998,11.54244 -7.99117,10.36753 -21.93958,30.81204 -10.96403,41.60756 6.72455,7.20195 34.760243,7.42228 44.991023,5.85 l -12,34.000001 c -20.736723,1.20176 -52.190623,0.98033 -67.779063,-10.494 -8.3109799,-6.41 -12.37563987,-15.864 -13.02053987,-25.430001 -0.57677,-8.546 2.05276997,-16.975 4.74020997,-25.1 5.13533,-15.527 10.9564199,-30.372 23.5193999,-42.609 C 50.435842,-1.6852211 103.2485,0.46717889 147.87988,0.10888889 Z"
       id="path76"
       inkscape:connector-curvature="0"
       style="fill:#000000;fill-opacity:1;stroke-width:1.0655421"
       sodipodi:nodetypes="ccccccccccc" />
    <path
       style="fill:#ffffff;stroke-width:1.0655421;fill-opacity:1"
       d="m 242.88062,0.10888889 -30,34.00000011 h 38 l -34,93.000001 h 40 l 35,-93.000001 h 35 l -32,93.000001 h 123 l 11,-14 h 45 v 14 h 78 l 25,-63.000001 17,49.000001 50,-40.000001 c 0,0 -13.08494,36.971001 -18,54.000001 h 40 l 43,-127.00000111 h -32 l -63,49.00000011 -21,-49.00000011 h -32 l -45,113.00000111 V 0.10888889 h -41 l -74,93.00000011 h -49 l 5,-13 h 32 l 26,-33 h -48 l 5,-13 h 53 l 28,-34.00000011 z m 231,53.00000011 v 28.99219 l -20,-0.0547 z"
       id="path90"
       inkscape:connector-curvature="0" />
  </g>
</svg>
