<?xml version="1.0" encoding="UTF-8" standalone="no"?>
<svg
   width="1030.036"
   height="1030.036"
   version="1.1"
   id="svg94"
   sodipodi:docname="ccteam1square.svg"
   inkscape:version="1.4.3 (0d15f75, 2025-12-25)"
   xmlns:inkscape="http://www.inkscape.org/namespaces/inkscape"
   xmlns:sodipodi="http://sodipodi.sourceforge.net/DTD/sodipodi-0.dtd"
   xmlns="http://www.w3.org/2000/svg"
   xmlns:svg="http://www.w3.org/2000/svg"
   xmlns:rdf="http://www.w3.org/1999/02/22-rdf-syntax-ns#"
   xmlns:cc="http://creativecommons.org/ns#"
   xmlns:dc="http://purl.org/dc/elements/1.1/">
  <metadata
     id="metadata100">
    <rdf:RDF>
      <cc:Work
         rdf:about="">
        <dc:format>image/svg+xml</dc:format>
        <dc:type
           rdf:resource="http://purl.org/dc/dcmitype/StillImage" />
      </cc:Work>
    </rdf:RDF>
  </metadata>
  <defs
     id="defs98" />
  <sodipodi:namedview
     pagecolor="#ffffff"
     bordercolor="#666666"
     borderopacity="1"
     objecttolerance="10"
     gridtolerance="10"
     guidetolerance="10"
     inkscape:pageopacity="0"
     inkscape:pageshadow="2"
     inkscape:window-width="1920"
     inkscape:window-height="1009"
     id="namedview96"
     showgrid="false"
     inkscape:zoom="0.35355339"
     inkscape:cx="1057.8317"
     inkscape:cy="323.85491"
     inkscape:window-x="1912"
     inkscape:window-y="-8"
     inkscape:window-maximized="1"
     inkscape:current-layer="svg94"
     fit-margin-top="0"
     fit-margin-left="0"
     fit-margin-right="0"
     fit-margin-bottom="0"
     inkscape:showpageshadow="2"
     inkscape:pagecheckerboard="0"
     inkscape:deskcolor="#d1d1d1" />
  <rect
     style="opacity:1;fill:#d4ff2a;fill-opacity:1;fill-rule:nonzero;stroke:#000000;stroke-width:18.2964;stroke-linecap:round;stroke-linejoin:round;stroke-miterlimit:4;stroke-dasharray:none;stroke-opacity:1;paint-order:fill markers stroke"
     id="rect866"
     width="1011.7396"
     height="1011.7396"
     x="9.1481848"
     y="9.1481848"
     ry="122.96075" />
  <g
     id="g1"
     transform="matrix(1.0780605,0,0,1.0780605,-32.38912,25.261756)">
    <path
       d="m 827.93382,302.7536 c 10.372,-4.331 21.033,-7.891 31.633,-11.617 9.41,-3.308 18.831,-6.908 28.539,-9.247 l -33.694,16.984 c -6.754,3.33 -15.011,6.34 -21,10.79 -2.002,-2.011 -4.05,-4.463 -5.478,-6.91 z"
       id="path6"
       inkscape:connector-curvature="0"
       style="fill:#ed3b18" />
    <path
       d="m 757.24482,189.0116 c 15.824,-7.267 31.875,-13.899 47.81,-20.896 l 53.899,-24.27 39.246,-17.794 c 5.567,-2.505 11.349,-5.729 17.123,-7.631 -40.281,25.878 -79.741,52.972 -120.201,78.556 -14.104,8.919 -28.265,18.553 -42.854,26.626 6.802,11.898 14.68,25.44 17.412,39.002 -9,-2.068 -18.019,-3.024 -27.163,-4.16 13.766,9.13 23.622,20.358 31.529,34.871 2.413,4.429 3.073,8.885 1.484,13.727 -4.505,13.728 -19.78,21.856 -31.824,27.819 -7.461,-6.555 -15.213,-13.793 -24.441,-17.74 -9.792,-4.188 -18.561,-2.595 -28.139,1.176 -3.76,-8.73 -5.767,-18.723 -8.232,-27.914 4.352,1.756 8.671,3.372 13.383,3.793 7.123,0.636 13.422,-2.145 18.738,-6.715 10.477,-9.005 11.864,-20.729 17.332,-32.572 2.838,-6.148 6.912,-11.896 10.298,-17.77 6.185,-10.73 11.822,-23.797 13.707,-36.158 0.6,-3.933 0.593,-7.982 0.893,-11.95 z"
       id="path8"
       inkscape:connector-curvature="0"
       style="fill:#ed3b18" />
    <path
       d="m 186.55982,445.0506 c -3.44667,-12.90267 -6.092,-25.96733 -7.936,-39.194 -10.668,-78.995 9.122,-157.011 57.645,-220.422 45.32575,-59.19074 113.68873,-98.584701 187.08,-109.024001 69.456,-9.227 141.649,6.201 197.805,49.152001 -12.638,12.131 -18.646,26.846 -22.445,43.683 -16.406,1.396 -36.986,3.134 -52.601,7.825 -1.639,-0.686 -3.42,-1.145 -5.165,-1.482 -20.833,-4.026 -36.748,7.745 -53.039,18.581 -39.093,-5.721 -78.744,0.541 -113.08,20.554 -42.099,24.538 -70.222,64.334 -82.677,111.017 -4.68,17.295 -4.899,39.836 -4.749,57.769 -28.099,16.139 -55.603,33.08 -83.216,50.033 -2.739,1.682 -16.114,11.092 -17.622,11.508 z"
       id="path10"
       inkscape:connector-curvature="0"
       sodipodi:nodetypes="cccccccccccccc" />
    <path
       d="m 602.67582,189.2846 c 2.65,-19.647 8.546,-41.586 22.313,-56.44 12.274,-13.243 30.75,-20.765 48.633,-21.363 22.36337,-0.73341 44.16509,7.80675 60.486,22.847 15.55,14.603 22.544,33.759 23.137,54.683 -0.3,3.968 -0.293,8.017 -0.893,11.95 -1.885,12.361 -7.522,25.428 -13.707,36.158 -3.386,5.874 -7.46,11.622 -10.298,17.77 -5.468,11.843 -6.855,23.567 -17.332,32.572 -5.316,4.57 -11.615,7.351 -18.738,6.715 -4.712,-0.421 -9.031,-2.037 -13.383,-3.793 2.465,9.191 4.472,19.184 8.232,27.914 9.578,-3.771 18.347,-5.364 28.139,-1.176 9.228,3.947 16.98,11.185 24.441,17.74 12.044,-5.963 27.319,-14.091 31.824,-27.819 1.589,-4.842 0.929,-9.298 -1.484,-13.727 -7.907,-14.513 -17.763,-25.741 -31.529,-34.871 9.144,1.136 18.163,2.092 27.163,4.16 23.165,8.982 41.742,21.479 58.254,40.149 1.428,2.447 3.476,4.899 5.478,6.91 20.297,25.136 31.406,71.535 27.883,103.69 -1.266,11.559 -4.618,23.659 -10.267,33.871 -3.4,-3.641 -6.726,-7.643 -10.597,-10.783 l -0.497,0.239 c -0.234,5.483 7.11,14.553 9.784,19.617 1.99533,3.84 3.71833,7.79867 5.169,11.876 21.432,59.339 -6.733,120.707 -50.925,161.007 -8.031,7.323 -17.563,14.842 -26.998,20.223 4.156,8.808 7.292,18.591 11.953,27.069 12.523,-8.986 35.458,-29.742 35.458,-29.742 h 76.535 l -56.075,187.928 -512.57,0.0707 -92.693,-0.0397 -38.781,0.003 c -9.066,0 -18.399,0.368 -27.403,-0.785 -14.271,-1.828 -28.482,-7.951 -38.757,-18.164 -12.252,-12.178 -17.542,-29.08 -17.471,-46.08 0.04,-9.514 2.07,-18.42 4.385,-27.585 6.474,-25.626 15.274,-45.115 34.355,-63.866 32.756,-32.189 60.919,-30.017 103.067,-29.663 -1.856,-25.909 0.443,-46.476 9.373,-70.997 l 1.607,-3.245 c -1.517,-0.965 -2.671,-1.548 -4.431,-1.944 -7.228,-6.069 -13.909,-13.037 -20.05,-20.193 -13.165,5.512 -26.718,10.109 -39.999,15.332 -34.875,13.715 -69.903,27.578 -105.249,40.044 7.962,-5.711 16.497,-10.897 24.649,-16.37 l 66.73,-44.006 c 10.742,-6.973 21.924,-13.614 32.323,-21.077 -3.563,-6.185 -8.028,-11.863 -11.626,-18.069 -9.662,-16.666 -17.372,-35.449 -23.107,-53.819 -7.08,3.198 -14.764,5.557 -22.054,8.271 -7.971,2.966 -16.037,6.485 -24.229,8.739 9.675,-5.955 19.543,-11.633 29.325,-17.412 4.71,-2.783 10.018,-5.404 14.331,-8.753 1.508,-0.416 14.883,-9.826 17.622,-11.508 27.613,-16.953 55.117,-33.894 83.216,-50.033 -0.15,-17.933 0.069,-40.474 4.749,-57.769 3.857,0.993 113.557,-53.72 126.757,-59.977 23.99,-23.572 48.021,-46.278 75.285,-66.041 8.168,-5.92 17.056,-12.878 26.935,-15.516 10.82,-2.891 17.082,0.737 26.532,-0.134 5.784,-0.534 11.562,-2.552 17.341,-3.431 11.154,-1.694 22.434,-2.566 33.665,-3.583 0.52,2.129 1.22,4.096 2.035,6.129 0.633,2.005 1.156,4.168 1.979,6.097 z"
       id="path12"
       inkscape:connector-curvature="0"
       sodipodi:nodetypes="ccccccccccccccccccccccccccccccccccccccccccccccccccccccccccccccccccc" />
    <path
       d="m 702.98982,339.2386 c 5.825,-0.533 11.47,1.62 16.882,3.459 q -11.039,1.51 -22.02,3.391 c -5.548,0.947 -11.071,1.955 -16.684,2.427 6.234,-4.446 14.271,-7.971 21.822,-9.277 z"
       id="path14"
       inkscape:connector-curvature="0"
       style="fill:#ed3b18" />
    <path
       d="m 568.26082,291.9966 c 0.606,0.724 0.497,0.474 0.816,1.237 2.547,6.093 11.706,30.862 9.789,35.971 l -1.379,0.493 c -0.926,-0.587 -1.737,-1.205 -2.269,-2.184 -2.34,-4.312 -3.428,-10.208 -4.932,-14.901 -1.774,-5.532 -3.852,-10.96 -5.635,-16.492 1.249,-1.33 2.417,-2.743 3.61,-4.124 z"
       id="path16"
       inkscape:connector-curvature="0"
       style="fill:#fefefe" />
    <path
       d="m 490.09382,363.8316 c 2.26,-2.362 4.457,-4.576 7.066,-6.555 2.124,10.152 3.914,18.624 10.748,26.782 7.498,8.334 15.585,15.48 25.701,20.451 q -1.613,6.608 -2.92,13.284 c -6.445,-13.768 -12.212,-22.323 -23.011,-32.974 -6.184,-6.713 -11.919,-13.838 -17.584,-20.988 z"
       id="path18"
       inkscape:connector-curvature="0"
       style="fill:#ed3b18" />
    <path
       d="m 619.29982,364.7896 6.9,2.652 c -4.008,9.783 -8.095,19.55 -13.207,28.813 -2.524,-0.656 -5.025,-1.414 -7.531,-2.136 4.429,-9.847 8.815,-19.767 13.838,-29.329 z"
       id="path20"
       inkscape:connector-curvature="0"
       style="fill:#fefefe" />
    <path
       d="m 626.80282,282.9986 c 0.012,0.979 -0.149,1.944 -0.404,2.885 -5.146,19.005 -17.003,36.987 -34.19,47 -2.008,-0.723 -4.088,-1.309 -6.123,-1.956 -1.132,-0.38 -0.634,-0.113 -1.515,-0.756 2.992,-2.292 6.503,-3.851 9.54,-6.27 13.364,-10.644 25.061,-25.748 32.692,-40.903 z"
       id="path22"
       inkscape:connector-curvature="0"
       style="fill:#fefefe" />
    <path
       d="m 655.23082,306.6626 c 4.687,4.821 16.21,25.202 19.911,32.046 l -6.98,3.538 c -1.007,0.335 -0.463,0.289 -1.639,0.019 -4.368,-5.441 -14.551,-23.598 -17.629,-30.354 2.022,-1.872 4.169,-3.551 6.337,-5.249 z"
       id="path24"
       inkscape:connector-curvature="0"
       style="fill:#fefefe" />
    <path
       d="m 600.69682,183.1876 c 0.633,2.005 1.156,4.168 1.979,6.097 -3.324,2.933 -5.236,6.599 -9.81,7.78 -3.494,0.902 -7.189,1.281 -10.775,1.599 -11.388,1.013 -12.807,-2.827 -21.918,-8.203 13.331,-1.272 27.666,-3.532 40.524,-7.273 z"
       id="path26"
       inkscape:connector-curvature="0"
       style="fill:#ed3b18" />
    <path
       d="m 431.80282,454.4636 c 1.313,1.356 1.283,5.395 1.575,7.408 2.192,15.108 9.069,27.636 21.363,36.832 -2.703,-0.99 -5.386,-2.045 -8.076,-3.071 -4.472,-1.7 -9.069,-4.196 -12.691,-7.354 -7.211,-6.287 -9.638,-14.683 -10.215,-23.891 2.177,-3.852 4.917,-6.837 8.044,-9.924 z"
       id="path28"
       inkscape:connector-curvature="0"
       style="fill:#fefefe" />
    <path
       d="m 705.29682,445.9836 c 2.631,2.949 18.494,61.063 20.907,70.141 -0.998,0.962 -2.494,1.008 -3.835,1.313 -1.625,-1.356 -19.528,-60.422 -21.276,-67.399 1.358,-1.389 2.804,-2.708 4.204,-4.055 z"
       id="path30"
       inkscape:connector-curvature="0"
       style="fill:#fefefe" />
    <path
       d="m 351.93382,567.9386 0.569,0.117 0.347,0.67 c -1.624,3.874 -6.297,8.114 -8.942,11.484 -7.707,9.82 -11.728,21.587 -10.112,34.146 0.916,7.117 3.998,13.981 9.885,18.351 5.784,4.292 13.124,5.618 20.15,4.544 9.882,-1.51 18.271,-7.23 24.082,-15.212 1.205,0.384 2.358,0.8 3.529,1.28 l 0.39,0.95 -0.867,1.43 c -2.516,2.518 -5.094,4.969 -7.95,7.101 -8.509,6.352 -19.24,9.928 -29.892,8.185 -7.12019,-1.06622 -13.46614,-5.26894 -17.696,-10.872 -5.813,-7.938 -6.526,-18.051 -5.081,-27.498 2.151,-14.057 10.217,-26.305 21.588,-34.676 z"
       id="path32"
       inkscape:connector-curvature="0"
       style="fill:#fefefe"
       sodipodi:nodetypes="cccccccccccccccc" />
    <path
       d="m 394.33882,357.0156 c 5.38,1.077 11.212,4.135 16.217,6.422 24.308,11.108 50.541,25.015 71.649,41.451 2.786,2.169 5.841,4.245 8.332,6.75 l -0.043,0.691 -1.645,0.26 c -3.445,0.78 -6.725,1.664 -9.971,3.07 -9.626,-9.304 -23.093,-17.509 -34.212,-25.078 -16.699,-11.368 -33.276,-22.715 -50.327,-33.566 z"
       id="path34"
       inkscape:connector-curvature="0"
       style="fill:#fefefe" />
    <path
       d="m 473.24582,511.6466 c -0.084,2.568 -3.773,7.012 -5.019,9.396 -13.855,26.525 -26.278,48.255 -22.717,79.327 -3.131,-4.572 -6.67,-8.817 -10.346,-12.955 -4.006,-4.564 -8.287,-8.291 -13.114,-11.973 8.442,-11.198 17.72,-21.811 26.275,-32.935 6.434,-8.365 12.109,-17.497 18.977,-25.498 1.807,-2.106 3.593,-3.844 5.944,-5.362 z"
       id="path36"
       inkscape:connector-curvature="0"
       style="fill:#ed3b18" />
    <path
       d="m 417.24482,471.0056 c 0.554,0.675 0.413,0.35 0.61,1.212 1.306,5.718 3.149,11.012 5.563,16.36 -8.159,10.075 -15.923,20.503 -23.951,30.688 -13.802,17.509 -27.678,34.564 -38.598,54.086 l -3.454,5.975 c 8.114,-28.026 26.244,-53.422 41.128,-78.215 5.92,-9.862 11.424,-21.221 18.702,-30.106 z"
       id="path38"
       inkscape:connector-curvature="0"
       style="fill:#fefefe" />
    <path
       style="fill:#fefefe"
       d="m 349.10582,581.4556 c 2.26457,4.46363 2.68526,9.65893 5.02565,14.10902 2.90976,6.349 7.97626,11.46361 13.861,15.12294 4.55129,3.12398 9.66019,5.40565 13.97535,8.87204 -0.66708,2.89821 -3.44103,4.63357 -5.74301,6.23422 -3.59511,2.25644 -7.37001,4.41203 -11.61742,5.10451 -5.85789,1.30774 -12.5168,0.63308 -17.22195,-3.38333 -6.1653,-5.15448 -8.40278,-13.69585 -7.77223,-21.46634 0.72224,-8.89718 4.70068,-17.20003 9.49261,-24.59306 z"
       id="path40"
       inkscape:connector-curvature="0" />
    <path
       d="m 639.33782,317.0896 c 2.754,3.44 4.858,7.809 7.117,11.599 4.13,6.931 8.417,13.8 12.221,20.916 -5.26,1.977 -10.435,4.39 -15.606,6.598 -5.227,-1.095 -10.202,-2.729 -15.222,-4.517 -8.251,-3.19 -17.439,-6.567 -25.06,-11.031 11.764,-8.428 24.228,-15.982 36.55,-23.565 z"
       id="path42"
       inkscape:connector-curvature="0"
       style="fill:#ed3b18" />
    <path
       style="fill:#ed3b18"
       d="m 490.34682,419.2016 c 5.36512,-0.55897 11.04903,0.85118 15.09525,4.5265 6.48376,5.61462 8.17038,15.76596 4.15475,23.2885 -2.67337,5.24669 -7.92989,9.0272 -13.67141,10.14239 -4.77494,0.41453 -9.8696,-0.23017 -13.82715,-3.1318 -5.7744,-3.98299 -8.96101,-11.29395 -7.97581,-18.23659 0.66572,-6.04744 4.63336,-11.45609 9.9951,-14.2386 1.95807,-1.05998 4.06616,-1.83083 6.22927,-2.3504 z"
       id="path44"
       inkscape:connector-curvature="0" />
    <path
       d="m 733.72982,483.2956 c 11.526,-1.047 21.762,0.848 30.829,8.424 8.271,6.911 12.754,16.412 13.676,27.106 1.444,16.752 -6.028,33.09 -16.688,45.625 -11.344,13.339 -27.622,22.692 -45.241,23.933 -10.534,0.742 -21.516,-2.029 -29.579,-9.079 -7.272,-6.358 -10.581,-15.231 -11.157,-24.716 -0.984,-16.21 6.066,-30.233 16.51,-42.117 0.57,-0.578 1.242,-1.025 1.891,-1.51 l 0.736,0.306 c 0.612,1.135 1.087,1.407 0.525,2.669 -1.419,3.183 -4.915,6.387 -7.038,9.187 -6.068,8.006 -8.924,20.183 -8.312,30.087 0.552,8.953 3.935,17.553 10.908,23.427 7.701,6.487 17.354,8.187 27.147,7.29 16.578,-1.519 31.263,-10.729 41.664,-23.475 9.433,-11.56 16.023,-26.388 14.4,-41.583 -0.999,-9.355 -5.188,-17.938 -12.607,-23.844 -10.051,-8.001 -21.139,-8.437 -33.407,-7.003 -0.955,-0.913 -1.105,-1.134 -1.503,-2.391 l 0.703,-1.028 c 2.103,-1.067 4.236,-1.11 6.543,-1.308 z"
       id="path46"
       inkscape:connector-curvature="0"
       style="fill:#fefefe" />
    <path
       d="m 610.25982,632.3066 c 1.703,-0.239 3.555,-0.143 5.28,-0.185 4.487,6.627 10.02,12.089 15.848,17.506 -58.46933,0.73084 -105.55008,0.0124 -158.997,-0.057 l 3.196,-4.745 c 17.261,-1.343 34.573,-2.433 51.799,-4.173 27.572,-2.784 55.245,-6.368 82.874,-8.346 z"
       id="path48"
       inkscape:connector-curvature="0"
       style="fill:#fefefe"
       sodipodi:nodetypes="ccccccc" />
    <path
       d="m 495.41682,273.9726 c 1.893,2.013 9.696,12.885 10.641,15.22 1.931,4.769 2.047,11.166 2.677,16.247 1.854,14.947 4.069,43.657 10.74,56.344 1.502,2.858 3.533,5.557 6.317,7.274 5.429,3.349 13.253,4.484 19.409,5.915 q 13.312,3.162 26.697,5.997 c 7.819,1.582 15.8,2.77 23.428,5.141 l -2.887,5.143 c -0.718,1.119 -0.808,1.609 -2.228,1.814 -4.463,0.643 -10.72,-0.858 -15.235,-1.335 -8.879,-0.937 -18.35,-0.847 -27.044,-2.754 -4.433,-0.973 -8.864,-2.72 -13.155,-4.195 -5.249,-1.805 -10.303,-3.723 -14.842,-6.997 -3.448,-2.487 -6.36,-5.559 -8.299,-9.375 -4.643,-9.134 -5.995,-19.898 -7.662,-29.888 q -2.955,-17.528 -5.073,-35.177 c -1.143,-9.787 -1.93,-19.642 -3.484,-29.374 z"
       id="path50"
       inkscape:connector-curvature="0"
       style="fill:#fefefe" />
    <path
       d="m 777.30982,276.9666 c 9.353,0.349 34.473,22.586 41.483,30.106 19.533,20.956 33.765,56.994 32.79,85.731 -2.59,-2.959 -4.351,-6.584 -6.858,-9.634 -7.036,-8.558 -15.32,-15.681 -24.128,-22.331 -0.435,-4.705 -0.969,-9.455 -1.636,-14.133 -3.843,-26.939 -20.032,-53.418 -41.651,-69.739 z"
       id="path52"
       inkscape:connector-curvature="0"
       style="fill:#ed3b18" />
    <path
       d="m 785.85582,354.4536 c 0.271,0.054 0.544,0.103 0.815,0.163 6.583,1.448 13.162,4.138 19.273,6.936 19.914,9.119 34.153,21.734 45.65,40.463 -0.074,7.098 -0.955,14.139 -2.922,20.96 l -0.451,0.838 c -2.04,0.085 -11.585,-6.671 -14.47,-8.224 -9.981,-5.371 -20.052,-9.87 -30.695,-13.756 0.417,-2.215 0.679,-4.51 0.84,-6.757 1.258,-17.574 -7.066,-28.092 -18.04,-40.623 z"
       id="path54"
       inkscape:connector-curvature="0"
       style="fill:#fefefe" />
    <path
       d="m 378.02482,509.1526 0.525,0.127 c -0.297,3.093 -7.264,13.621 -9.155,16.915 -0.406,0.112 -0.814,0.217 -1.215,0.347 -23.953,7.739 -44.545,30.314 -55.821,52.106 -8.183,15.813 -12.558,35.309 -9.744,53.045 0.905,5.701 2.638,11.12 4.392,16.6 l -12.166,-0.108 -1.879,-0.095 c -1.082,-0.688 -1.521,-1.675 -1.817,-2.885 -6.16,-25.127 -0.265,-53.326 12.175,-75.618 15.576,-27.911 43.787,-51.555 74.705,-60.434 z"
       id="path56"
       inkscape:connector-curvature="0"
       style="fill:#fefefe" />
    <path
       d="m 684.64482,362.2416 c 3.924,-0.597 10.203,2.956 13.607,4.823 9.931,5.446 22.493,14.607 27.774,24.92 1.068,2.086 1.674,4.451 2.327,6.695 -3.929,-2.316 -7.426,-5.857 -10.943,-8.767 -10.198,-8.435 -20.823,-17.226 -33.101,-22.393 11.783,10.056 26.551,25.26 29.986,40.69 -12.73,-11.562 -22.085,-24.673 -38.267,-31.983 5.022,8.299 11.541,15.48 16.968,23.494 2.232,3.824 3.394,7.875 4.541,12.119 -5.382,-3.402 -9.457,-8.953 -13.84,-13.516 -5.332,-5.551 -11.817,-11.467 -18.196,-15.799 3.838,8.848 9.866,15.945 15.101,23.942 3.471,5.302 6.092,10.94 8.397,16.828 -7.728,-4.429 -24.534,-22.935 -30.438,-30.108 0.7,4.012 1.424,7.916 2.627,11.811 q -12.606,-1.35 -24.977,-4.122 c -1.977,-5.57 -3.229,-10.915 -3.459,-16.822 10.624,-12.414 36.056,-19.041 51.893,-21.812 z"
       id="path58"
       inkscape:connector-curvature="0"
       style="fill:#ed3b18" />
    <path
       d="m 663.00582,123.5296 c 21.32,-2.861 41.814,0.821 59.187,14.148 13.516,10.368 22.716,25.266 24.952,42.266 0.833,6.331 0.707,12.727 0.238,19.081 -11.763,1.383 -23.118,0.744 -34.866,-0.216 -0.16943,-9.80684 -1.92199,-19.40562 -5.021,-28.353 -5.332,-15.446 -15.756,-30.155 -29.556,-39.142 -4.649,-3.028 -9.955,-5.342 -14.934,-7.784 z"
       id="path60"
       inkscape:connector-curvature="0"
       style="fill:#ed3b18"
       sodipodi:nodetypes="cccccccc" />
    <path
       d="m 734.84182,494.2936 c 3.513,-0.641 7.738,-0.139 11.159,0.82 7.59348,2.11684 13.77841,7.30235 17.589,14.06 4.421,8.241 3.923,19.552 1.349,28.322 -4.095,13.954 -15.287,27.218 -28.038,34.088 -9.607,5.177 -21.513,8.106 -32.203,4.737 -7.099,-2.237 -11.903,-6.743 -15.327,-13.211 -1.441,-3.833 -2.395,-7.467 -2.661,-11.573 -0.776,-11.937 4.134,-22.662 11.859,-31.491 3.705,8.218 5.243,21.475 12.156,27.5 3.317,2.891 7.701,3.882 12.012,3.38 6.309,-0.734 11.976,-4.609 15.734,-9.618 3.082,-4.108 5.179,-9.567 4.189,-14.753 -0.921,-4.829 -3.597,-7.169 -7.502,-9.682 -2.443,-7.091 -4.43,-14.42 -6.394,-21.66 1.98,-0.473 4.061,-0.652 6.078,-0.919 z"
       id="path62"
       inkscape:connector-curvature="0"
       style="fill:#fefefe"
       sodipodi:nodetypes="cccccccccccccccc" />
    <path
       d="m 595.76282,408.2466 c 7.883,0.698 15.803,0.881 23.689,1.556 q 21.811,1.738 43.292,5.893 c -8.665,1.863 -17.386,2.598 -26.022,4.862 -25.451,6.672 -48.323,17.739 -70.781,31.274 -7.642,4.606 -15.41,9.253 -22.314,14.934 -12.743,10.484 -24.311,23.386 -35.208,35.738 -5.58,6.611 -11.626,12.84 -17.313,19.362 -5.142,5.895 -9.765,12.395 -15.545,17.687 8.093,-16.746 21.741,-35.324 32.07,-51.2 4.841,-7.44 9.85,-14.767 13.427,-22.928 3.354,-7.655 5.37,-15.616 6.559,-23.867 16.723,-12.295 32.82,-21.28 52.394,-28.381 5.114,-1.855 10.401,-3.905 15.752,-4.93 z"
       id="path64"
       inkscape:connector-curvature="0"
       style="fill:#ed3b18" />
    <path
       style="fill:#ed3b18"
       d="m 538.26082,206.7956 c 17.2455,-1.9109 35.04333,8.6321 41.41019,24.81756 7.52905,18.25092 0.43222,41.60595 -16.77131,51.70972 -7.36707,4.26612 -15.90669,6.88296 -24.45274,6.738 -16.23074,-0.70587 -31.48082,-11.66133 -37.10514,-26.94228 -7.47603,-18.45462 1.02535,-41.58306 18.48942,-51.02008 5.66849,-3.08313 12.04505,-4.64207 18.42958,-5.30292 z"
       id="path66"
       inkscape:connector-curvature="0" />
    <path
       d="m 540.43582,218.7706 c 10.20101,-0.6396 20.01689,5.38074 25.51538,13.7464 2.59712,4.07396 3.97063,8.79638 4.73662,13.5316 -6.11541,-0.59814 -12.26778,-0.36994 -18.399,-0.231 -1.89849,-3.69424 -5.00148,-7.65073 -9.55798,-7.64605 -5.61011,-0.10932 -11.05164,4.3316 -11.37402,10.07305 -0.78177,6.19493 4.34668,12.99424 10.89131,12.49228 3.47059,-0.21799 6.40758,-2.32473 9.08069,-4.35928 5.56434,0.65563 11.09107,1.68538 16.532,3.017 -3.03155,6.14435 -7.53063,11.81759 -13.78281,14.89494 -11.82842,5.96386 -27.86991,3.16857 -36.11041,-7.48952 -8.03351,-10.1619 -7.92401,-25.62387 -0.0895,-35.86892 5.26292,-7.19644 13.8601,-11.15242 22.55772,-12.1605 z"
       id="path68"
       inkscape:connector-curvature="0"
       sodipodi:nodetypes="cccccccccccccc" />
    <path
       d="m 747.75782,439.3016 c 0.135,-0.021 0.269,-0.048 0.404,-0.062 18.212,-1.866 38.515,4.268 52.521,15.997 15.187,12.718 22.955,31.285 24.612,50.76 2.624,30.817 -10.291,60.943 -29.848,84.217 -21.392,25.457 -52.57,45.854 -86.399,48.579 -20.232,1.63 -39.688,-3.117 -55.309,-16.417 -14.396,-12.258 -22.721,-29.941 -24.051,-48.721 -2.476,-34.944 13.545,-63.973 35.609,-89.567 2.962,-3.131 5.935,-6.15 9.161,-9.01 -1.615,16.515 -7.427,20.384 -15.652,33.848 -11.78477,19.82098 -18.25658,47.08237 -13.606,68.271 3.24949,14.61301 11.9641,27.58584 24.1,36.107 15.001,10.417 34.694,12.225 52.272,8.966 28.797,-5.341 54.239,-24.801 70.49,-48.75 13.872,-20.442 21.722,-46.649 16.783,-71.315 -3.295,-16.453 -12.471,-31.803 -26.568,-41.155 -12.25,-8.126 -27.817,-11.627 -42.402,-10.219 -5.724,0.552 -11.435,1.944 -17.065,3.099 -0.626,-2.933 -1.388,-5.811 -2.178,-8.703 9.047,-2.943 17.63,-5.057 27.126,-5.925 z"
       id="path74"
       inkscape:connector-curvature="0"
       style="fill:#fefefe"
       sodipodi:nodetypes="ccscccccccccccccccccc" />
    <path
       d="m 292.14682,325.7406 c 3.857,0.993 113.557,-53.72 126.757,-59.977 -0.185,0.261 -0.368,0.524 -0.557,0.782 -2.188,2.981 -5.149,5.659 -7.681,8.371 -5.836,6.251 -11.825,12.38 -17.583,18.7 -16.186,17.767 -29.644,39.527 -36.604,62.59 -2.519,8.346 -3.939,16.907 -6.27,25.277 -24.25,10.832 -48.598,21.677 -72.663,32.912 -29.297,13.677 -58.346,27.729 -88.359,39.81 -7.08,3.198 -14.764,5.557 -22.054,8.271 -7.971,2.966 -16.037,6.485 -24.229,8.739 9.675,-5.955 19.543,-11.633 29.325,-17.412 4.71,-2.783 10.018,-5.404 14.331,-8.753 1.508,-0.416 14.883,-9.826 17.622,-11.508 27.613,-16.953 55.117,-33.894 83.216,-50.033 -0.15,-17.933 0.069,-40.474 4.749,-57.769 z"
       id="path78"
       inkscape:connector-curvature="0"
       style="fill:#ed3b18" />
    <path
       style="fill:#fefefe"
       d="m 725.67482,247.5876 c -5.68026,11.15139 -7.05492,25.56477 -18.33645,32.94805 -8.53035,5.5823 -19.0234,1.00373 -27.2592,-2.84808 -21.67267,-11.40342 -41.85074,-27.14314 -55.04736,-48.04167 -13.27232,-20.90894 -11.44991,-48.04325 -1.93272,-70.03707 7.05869,-17.12697 21.54267,-31.7568 39.90673,-36.07923 11.83041,5.06034 23.03646,12.13573 30.96424,22.44767 12.0092,14.80377 18.18009,33.87678 18.54676,52.83133 -11.84713,-1.18439 -23.11816,-5.11863 -34.18094,-9.29381 -7.99437,-4.99274 -15.52662,2.58875 -14.56222,10.8241 -0.50216,14.19243 3.72467,30.12624 16.38912,38.17209 13.36731,8.28706 30.00105,11.3683 45.51204,9.07662 z"
       id="path80"
       inkscape:connector-curvature="0" />
    <path
       d="m 670.38882,247.6166 c 1.122,0.144 2.242,0.309 3.34,0.586 2.74,0.693 5.051,2.155 6.464,4.677 0.816,1.459 0.999,3.043 0.436,4.637 -0.825,2.339 -2.465,3.287 -4.562,4.397 -1.91,0.376 -3.792,0.732 -5.668,-0.002 -1.834,-0.717 -3.354,-2.499 -4.143,-4.262 q -0.17,-0.378 -0.299,-0.773 -0.129,-0.394 -0.215,-0.8 -0.085,-0.406 -0.127,-0.819 -0.042,-0.413 -0.04,-0.828 0.002,-0.415 0.049,-0.827 0.046,-0.413 0.137,-0.817 0.09,-0.405 0.223,-0.799 0.134,-0.393 0.308,-0.769 c 0.907,-1.947 2.147,-2.845 4.097,-3.601 z"
       id="path82"
       inkscape:connector-curvature="0" />
    <path
       d="m 628.55082,201.6126 c 12.916,9.125 22.098,12.138 28.362,27.736 0.996,2.478 2.305,5.227 2.808,7.837 0.298,1.54 0.177,2.977 -0.838,4.251 -0.775,0.972 -2.264,1.741 -3.334,2.297 -2.556,-7.142 -6.051,-16.143 -10.848,-22.015 -3.22,-3.94 -14.665,-10.434 -16.057,-13.754 z"
       id="path84"
       inkscape:connector-curvature="0" />
    <path
       d="m 628.64382,207.9646 c 1.392,3.32 12.837,9.814 16.057,13.754 4.797,5.872 8.292,14.873 10.848,22.015 -1.215,0.415 -2.524,0.806 -3.826,0.752 -4.833,-0.2 -9.378,-3.744 -12.578,-7.114 -7.771,-8.185 -10.78,-18.295 -10.501,-29.407 z"
       id="path86"
       inkscape:connector-curvature="0"
       style="fill:#ed3b18" />
    <path
       id="path88"
       d="m 297.95782,416.5686 c 17.565,-7.15 36.662,-13.901 53.366,-22.694 13.468,20.59 27.687,28.823 49.031,39.791 7.024,3.609 14.081,6.972 20.589,11.481 -10.241,9.866 -14.762,18.783 -22.599,29.807 -41.728,5.09 -80.741,29.29 -106.507,62.145 -8.797,11.218 -16.621,23.975 -21.891,37.209 -1.517,-0.965 -2.671,-1.548 -4.431,-1.944 -7.228,-6.069 -13.909,-13.037 -20.05,-20.193 -13.165,5.512 -26.718,10.109 -39.999,15.332 -34.875,13.715 -69.903,27.578 -105.249,40.044 7.962,-5.711 16.497,-10.897 24.649,-16.37 l 66.73,-44.006 c 10.742,-6.973 21.924,-13.614 32.323,-21.077 17.934,-11.46 37.003,-21.658 55.694,-31.847 15.491,-8.445 30.907,-17.148 46.622,-25.168 -11.509,-15.792 -22.893,-33.509 -28.278,-52.51 z m -32.442,155.795 c 1.76,0.396 2.914,0.979 4.431,1.944 l -1.607,3.245 c -5.776,1.205 -11.762,3.735 -17.375,5.675 q -15.348,5.471 -30.905,10.313 c 13.531,-8.079 30.841,-15.031 45.456,-21.177 z"
       style="fill:#ed3b18;fill-opacity:1"
       inkscape:connector-curvature="0" />
    <path
       d="m 341.05257,679.38256 c 14.55103,-0.245 43.21271,0 43.21271,0 l -30,34 c 0,0 -32.80771,-1.81466 -40.97237,10.31686 -4.74714,6.11202 -22.52703,34.859 -12.03087,44.23914 7.8557,6.654 41.00324,4.444 41.00324,4.444 l -12.00046,34.00004 c 0,0 -45.89382,1.99196 -62.54418,-10.15104 -7.64565,-5.575 -11.35948,-13.55 -12.17241,-22.111 -1.93015,-20.325 14.63846,-57.162 29.22583,-72.237 13.99128,-14.459 35.17407,-21.066 56.27851,-22.501 z"
       id="path70"
       inkscape:connector-curvature="0"
       style="fill:#ed3b18;fill-opacity:1;stroke-width:1.06554"
       sodipodi:nodetypes="cccccccccsc" />
    <path
       d="m 301.26528,679.38256 c -14.60973,4.2292 -28.7698,15.90096 -39.00001,34 0,0 -36.56106,-3.40037 -50.02698,11.54244 -7.99117,10.36753 -21.93958,30.81204 -10.96403,41.60756 6.72455,7.20195 34.76024,7.42228 44.99102,5.85 l -12,34 c -20.73672,1.20176 -52.19062,0.98033 -67.77906,-10.494 -8.31098,-6.41 -12.37564,-15.864 -13.02054,-25.43 -0.57677,-8.546 2.05277,-16.975 4.74021,-25.1 5.13533,-15.527 10.95642,-30.372 23.5194,-42.609 22.09596,-25.16111 74.9086,-23.00871 119.53999,-23.367 z"
       id="path76"
       inkscape:connector-curvature="0"
       style="fill:#ed3b18;fill-opacity:1;stroke-width:1.06554"
       sodipodi:nodetypes="ccccccccccc" />
    <path
       d="m 554.26527,772.38256 74,-93 h 41 v 113 l 45,-113 h 32 l 21,49 63,-49 h 32 l -43,127 h -40 c 4.91506,-17.029 18,-54 18,-54 l -50,40 -17,-49 -25,63 h -78 v -14 h -45 l -11,14 H 448.26528 l 31.99999,-93 h -34.99999 l -35,93 h -40 l 34,-93 h -38 l 30,-34 h 209.99999 l -28,34 h -53 l -5,13 h 48 l -26,33 h -32 l -5,13"
       id="path90"
       inkscape:connector-curvature="0"
       style="fill:#fefefe;stroke-width:1.06554"
       sodipodi:nodetypes="ccccccccccccccccccccccccccccccccccc" />
    <path
       d="m 627.26527,732.38256 v 28.993 l -20,-0.056 z"
       id="path92"
       inkscape:connector-curvature="0"
       sodipodi:nodetypes="cccc" />
  </g>
</svg>
