<?xml version="1.0" encoding="UTF-8" standalone="no"?>
<!-- Created with Inkscape (http://www.inkscape.org/) -->

<svg
   width="254.35277mm"
   height="254.35277mm"
   viewBox="0 0 254.35277 254.35277"
   version="1.1"
   id="svg5"
   inkscape:version="1.1.1 (3bf5ae0d25, 2021-09-20)"
   sodipodi:docname="logo-ohvale.svg"
   xmlns:inkscape="http://www.inkscape.org/namespaces/inkscape"
   xmlns:sodipodi="http://sodipodi.sourceforge.net/DTD/sodipodi-0.dtd"
   xmlns="http://www.w3.org/2000/svg"
   xmlns:svg="http://www.w3.org/2000/svg">
  <sodipodi:namedview
     id="namedview7"
     pagecolor="#ffffff"
     bordercolor="#666666"
     borderopacity="1.0"
     inkscape:pageshadow="2"
     inkscape:pageopacity="0.0"
     inkscape:pagecheckerboard="0"
     inkscape:document-units="mm"
     showgrid="false"
     fit-margin-top="0"
     fit-margin-left="0"
     fit-margin-right="0"
     fit-margin-bottom="0"
     inkscape:zoom="0.64052329"
     inkscape:cx="472.2701"
     inkscape:cy="506.61702"
     inkscape:window-width="1294"
     inkscape:window-height="969"
     inkscape:window-x="79"
     inkscape:window-y="92"
     inkscape:window-maximized="0"
     inkscape:current-layer="g830" />
  <defs
     id="defs2">
    <clipPath
       clipPathUnits="userSpaceOnUse"
       id="clipPath840">
      <path
         d="M 0,841.89 H 840.56 V 0 H 0 Z"
         id="path838" />
    </clipPath>
  </defs>
  <g
     inkscape:label="Calque 1"
     inkscape:groupmode="layer"
     id="layer1"
     transform="translate(19.777221,-14.507899)">
    <g
       id="g830"
       inkscape:label="LogoOhvale2022"
       transform="matrix(0.35277777,0,0,-0.35277777,-40.945298,290.34131)">
      <path
         d="m 781.004,781.89 h -721 v -721 h 721 z"
         style="fill:#000000;fill-opacity:1;fill-rule:nonzero;stroke:none"
         id="path832" />
      <g
         id="g834">
        <g
           id="g836"
           clip-path="url(#clipPath840)">
          <g
             id="g842"
             transform="translate(185.6823,311.7116)">
            <path
               d="m 0,0 0.147,-0.002 c 3.118,0.008 4.349,3.04 4.349,3.04 0,0 -3.01,-10.181 -3.516,-11.932 -0.896,-3.055 -3.317,-3.486 -4.222,-3.546 l -0.049,-0.002 -0.298,0.002 h -0.04 c -21.01,-0.028 -40.781,-9.462 -44.173,-21.062 -3.385,-11.611 10.903,-20.996 31.916,-20.968 l 0.327,0.003 c 3.038,0.105 4.237,3.042 4.237,3.042 0,0 -3.001,-10.179 -3.518,-11.927 -1.112,-3.803 -4.553,-3.492 -4.553,-3.492 l -0.11,-0.001 C -55.786,-66.896 -80.857,-51.989 -75.47,-33.532 -70.083,-15.068 -36.3,-0.05 0,0"
               style="fill:#d1ff00;fill-opacity:1;fill-rule:nonzero;stroke:none"
               id="path844" />
          </g>
          <g
             id="g846"
             transform="translate(175.1738,250.9277)">
            <path
               d="m 0,0 -0.146,-0.002 c -3.131,-0.011 -4.366,-3.042 -4.366,-3.042 0,0 3.016,10.179 3.532,11.931 0.89,3.062 3.31,3.484 4.216,3.533 h 0.056 c 0.181,0.011 0.291,0 0.291,0 h 0.033 c 21.024,0.031 40.791,9.475 44.181,21.071 3.381,11.615 -10.904,21 -31.917,20.972 h -0.327 c -3.038,-0.108 -4.242,-3.04 -4.242,-3.04 0,0 3.014,10.173 3.527,11.923 1.105,3.793 4.547,3.49 4.547,3.49 l 0.108,0.002 C 55.787,66.894 80.836,51.968 75.45,33.504 70.076,15.058 36.29,0.05 0,0"
               style="fill:#ffffff;fill-opacity:1;fill-rule:nonzero;stroke:none"
               id="path848" />
          </g>
          <g
             id="g850"
             transform="translate(491.4287,276.9529)">
            <path
               d="M 0,0 0.734,-0.011 C 0.734,-0.011 0.456,-0.004 0,0"
               style="fill:#ffffff;fill-opacity:1;fill-rule:nonzero;stroke:none"
               id="path852" />
          </g>
          <g
             id="g854"
             transform="translate(465.3961,314.4903)">
            <path
               d="M 0,0 -30.662,-0.06 -68.195,-41.393 -81.1,-0.026 -111.721,-0.071 c 3.455,-8.9 24.715,-62.125 24.715,-62.125 l 15.333,0.021 c 6.843,0.009 12.083,2.263 17.013,6.552 C -41.621,-42.534 -7.079,-7.245 0,0"
               style="fill:#ffffff;fill-opacity:1;fill-rule:nonzero;stroke:none"
               id="path856" />
          </g>
          <g
             id="g858"
             transform="translate(727.6931,301.7419)">
            <path
               d="m 0,0 3.832,13.105 -84.391,-0.097 -16.14,-54.919 c -2.134,-5.783 -9.48,-7.271 -9.48,-7.271 l 12.526,0.017 c 0,0 -0.004,0.013 -0.004,0.039 l 79.321,0.071 3.83,13.092 -48.971,-0.071 c -3.695,-0.004 -7.66,-2.179 -8.974,-6.332 l 5.727,18.951 53.789,0.075 3.83,13.111 -53.791,-0.081 2.993,10.233 z"
               style="fill:#ffffff;fill-opacity:1;fill-rule:nonzero;stroke:none"
               id="path860" />
          </g>
          <g
             id="g862"
             transform="translate(576.7853,265.5807)">
            <path
               d="M 0,0 C -5.229,-0.007 -8.224,-3.225 -9.214,-6.62 L 7.217,49.078 -21.26,49.035 -37.087,-4.467 c -0.086,-0.213 -0.18,-0.465 -0.264,-0.775 -1.813,-6.345 -9.723,-7.912 -9.723,-7.912 l 12.537,0.019 81.561,0.114 3.833,13.094 z M 11.606,0.041 C 11.503,0.039 11.381,0.03 11.258,0.015 l 0.953,0.004 c -0.015,0.013 -0.24,0.022 -0.605,0.022"
               style="fill:#ffffff;fill-opacity:1;fill-rule:nonzero;stroke:none"
               id="path864" />
          </g>
          <g
             id="g866"
             transform="translate(481.7839,276.9211)">
            <path
               d="M 0,0 C -5.173,-0.009 -8.06,-0.986 -12.242,-5.1 L 8.257,17.699 13.774,0.019 Z M 27.084,37.685 -0.564,37.644 c 0,0 -33.259,-33.838 -54.019,-55.094 -6.37,-6.258 -12.77,-7.07 -12.77,-7.07 l 13.402,0.018 0.003,0.008 17.837,0.026 c 2.781,0.144 6.219,0.792 9.552,3.714 l 3.105,3.27 c 3.563,3.593 7.07,4.36 12.149,4.37 l 29.144,0.043 4.338,-11.445 29.692,0.041 C 43.786,-4.14 43.793,-4.181 27.084,37.685"
               style="fill:#ffffff;fill-opacity:1;fill-rule:nonzero;stroke:none"
               id="path868" />
          </g>
          <g
             id="g870"
             transform="translate(338.2418,257.8107)">
            <path
               d="m 0,0 16.498,56.521 -28.499,-0.037 -6.73,-23.045 -26.281,-0.042 c -3.824,-0.005 -7.496,-2.046 -8.751,-6.261 L -45.085,56.431 -73.57,56.39 -89.205,3.038 c -0.088,-0.215 -0.166,-0.474 -0.264,-0.79 -1.813,-6.332 -9.725,-7.91 -9.725,-7.91 l 12.551,0.017 c 0,0 -0.015,0.013 -0.015,0.026 l 16.931,0.028 c 2.329,0.211 6.697,1.283 8.411,6.536 l 4.086,13.783 c 1.267,3.258 3.351,5.568 7.992,5.576 L -22.563,20.345 -27.51,3.32 c -0.117,-0.237 -0.235,-0.556 -0.356,-0.984 -1.806,-6.332 -9.72,-7.908 -9.72,-7.908 l 12.535,0.019 c 0,0 -0.007,0.005 -0.007,0.037 L -7.876,-5.49 C -5.661,-5.262 -1.873,-4.265 0,0"
               style="fill:#ffffff;fill-opacity:1;fill-rule:nonzero;stroke:none"
               id="path872" />
          </g>
          <g
             id="g874"
             transform="translate(401.191,415.7622)">
            <path
               d="m 0,0 c -0.739,-1.567 -4.662,-9.044 -13.28,-9.318 -0.356,-0.018 -0.697,-0.016 -1.04,-0.017 -66.474,-0.093 -111.679,29.599 -100.968,66.316 10.717,36.717 73.292,66.564 139.765,66.658 l 0.117,0.003 c 0,0 0.35,-0.018 0.935,-10e-4 l 0.154,0.002 c 2.62,0.151 9.258,1.309 12.53,8.953 l 10.79,37.83 c -1.789,-2.825 -5.759,-7.431 -12.622,-7.483 l -0.46,-0.004 C -78.876,162.778 -185.744,115.318 -202.773,56.921 -219.819,-1.466 -140.554,-48.661 -25.765,-48.499 l 0.356,0.002 c 0,0 10.038,-0.85 13.941,9.723 0.172,0.385 0.683,1.448 1.584,2.729 L 1.101,2.472 C 0.696,1.724 0.326,0.904 0,0"
               style="fill:#d1ff00;fill-opacity:1;fill-rule:nonzero;stroke:none"
               id="path876" />
          </g>
          <g
             id="g878"
             transform="translate(465.5763,597.8911)">
            <path
               d="M 0,0 -0.356,0.003 V 0.01 c 0,0 -10.012,0.857 -13.919,-9.685 -0.129,-0.288 -0.487,-1.052 -1.107,-2.028 l -10.79,-37.83 c 0.147,0.342 0.291,0.693 0.423,1.063 0.747,1.605 4.681,9.024 13.27,9.302 h 1.028 c 66.47,0.095 111.68,-29.585 100.973,-66.307 -10.713,-36.724 -73.297,-66.57 -139.757,-66.665 l -0.125,10e-4 0.007,0.013 c 0,0 -0.355,0.014 -0.935,-0.004 l -0.154,0.002 v -0.012 c -2.45,-0.129 -8.409,-1.159 -11.842,-7.516 l -10.985,-38.518 c 1.976,2.816 5.833,6.681 12.122,6.737 0.149,-0.009 0.299,-0.015 0.462,-0.011 114.794,0.164 221.672,47.637 238.7,106.018 C 194.054,-47.027 114.808,0.163 0,0"
               style="fill:#ffffff;fill-opacity:1;fill-rule:nonzero;stroke:none"
               id="path880" />
          </g>
          <g
             id="g882"
             transform="translate(637.5482,586.9244)">
            <path
               d="M 0,0 H 2.295 C 3.443,0 5.633,0 5.633,2.155 5.633,2.781 5.355,3.616 4.521,3.999 3.964,4.207 3.477,4.207 1.773,4.207 H 0 Z m 2.261,6.363 c 1.599,0 2.712,-0.035 3.65,-0.382 1.704,-0.592 2.504,-2.156 2.504,-3.617 0,-1.077 -0.418,-2.99 -3.199,-3.685 1.495,-0.626 1.947,-1.53 2.225,-3.269 0.313,-2.156 0.487,-3.269 1.182,-4.659 H 5.459 c -0.452,0.904 -0.521,1.495 -0.834,3.408 -0.522,3.302 -0.73,3.616 -4.66,3.616 V -9.249 H -2.816 V 6.363 Z m 0.138,3.373 c -6.119,0 -11.23,-4.938 -11.23,-11.266 0,-6.363 5.076,-11.266 11.265,-11.266 6.503,0 11.266,5.216 11.266,11.231 C 13.7,4.694 8.901,9.736 2.399,9.736 M 2.397,-14.9 c -6.948,0 -13.332,5.446 -13.332,13.37 0,7.699 6.158,13.37 13.332,13.37 7.511,0 13.407,-5.822 13.407,-13.407 0,-7.136 -5.633,-13.333 -13.407,-13.333"
               style="fill:#ffffff;fill-opacity:1;fill-rule:nonzero;stroke:none"
               id="path884" />
          </g>
        </g>
      </g>
    </g>
  </g>
</svg>
